<svg width="170" height="243" viewBox="0 0 170 243" fill="none" xmlns="http://www.w3.org/2000/svg">
<path d="M60.4953 12.0647L0.0578312 12.1061C0.986637 10.2889 1.6164 8.32413 1.84996 6.32125C1.92121 5.42615 1.99247 4.53105 1.96043 3.64222C1.91613 2.54697 1.71145 1.54431 1.50678 0.541659L63.8268 0.427531C65.8989 0.4054 67.8318 1.53108 68.8718 3.3324L150.038 143.916C150.084 143.996 150.09 144.099 150.136 144.179C150.62 144.647 150.99 145.287 151.313 145.848C155.237 152.922 159.185 160.037 163.069 167.135C166.016 172.425 168.999 177.961 169.417 183.964C169.401 184.027 169.424 184.067 169.407 184.131C169.565 186.441 169.252 188.863 167.98 190.825C166.707 192.788 164.318 194.114 162.026 193.569C158.429 192.71 157.144 188.168 153.979 186.206C149.935 183.737 144.747 187.16 142.786 190.8C141.521 193.239 142.302 196.257 143.785 198.549C145.309 200.819 147.428 202.637 149.17 204.728C151.54 207.629 153.133 211.406 152.377 215.098C151.599 218.75 147.759 221.821 144.196 220.835C140.065 219.698 137.909 214.111 133.632 214.019C129.522 213.937 127.303 219.167 127.938 223.23C128.573 227.294 130.872 231.09 130.951 235.208C131.029 239.325 127.161 244.014 123.389 242.296C121.003 241.218 120.188 238.326 118.573 236.269C116.756 233.956 112.986 232.61 110.096 233.531C106.416 234.749 106.411 238.167 103.624 240.47L100.597 235.226L97.2458 229.422L96.9222 228.862C96.876 228.782 96.7897 228.725 96.7435 228.645C95.8251 227.147 94.5691 225.897 93.0847 224.993L138.287 146.804L60.4953 12.0647Z" fill="#2B0910"/>
</svg>
