<svg width="62" height="71" viewBox="0 0 62 71" fill="none" xmlns="http://www.w3.org/2000/svg">
<path d="M0 34.1568C0 43.6674 7.71127 51.3802 17.2199 51.3802C26.7285 51.3802 34.4398 43.6674 34.4398 34.1568C34.4398 21.9787 17.2199 0 17.2199 0C17.2199 0 0 21.8047 0 34.1568ZM12.3496 44.6532C6.89956 42.6815 5.10219 36.8244 5.97189 31.5472C6.66764 27.6618 8.58096 23.8344 10.9581 21.2828C10.1464 22.1526 10.0884 25.0522 9.91449 26.154C9.68257 27.8938 9.50863 29.6915 9.56661 31.4312C9.62459 34.9107 10.4943 38.2742 12.4076 41.1737C13.3933 42.6235 14.6688 43.8993 16.2343 44.5952C15.0747 45.2331 13.6252 45.1171 12.3496 44.6532Z" fill="#2B0910"/>
<path d="M40.876 60.4268C40.876 66.2839 45.6303 70.9812 51.4282 70.9812C57.2842 70.9812 61.9805 66.2259 61.9805 60.4268C61.9805 52.9459 51.4282 39.4919 51.4282 39.4919C51.4282 39.4919 40.876 52.8879 40.876 60.4268ZM48.4713 66.9218C45.1085 65.704 44.0069 62.1085 44.5287 58.861C44.9345 56.4834 46.1521 54.1057 47.5436 52.54C47.0798 53.0619 47.0218 54.8596 46.9058 55.5555C46.7319 56.5993 46.6739 57.7012 46.6739 58.803C46.7319 60.9487 47.2537 62.9784 48.4133 64.7761C48.9931 65.646 49.8048 66.4578 50.7905 66.8638C50.0947 67.2117 49.225 67.2117 48.4713 66.9218Z" fill="#2B0910"/>
</svg>
