<svg width="215" height="146" viewBox="0 0 215 146" fill="none" xmlns="http://www.w3.org/2000/svg">
<path d="M96.67 57.4673C96.7355 58.6451 96.9319 59.8884 97.1283 61.0662C99.4198 63.291 103.021 63.6836 105.901 63.8144C111.925 64.0108 116.377 62.8983 119.585 60.4118C119.781 59.234 119.912 58.0562 119.978 56.8784C117.883 58.318 115.264 59.234 112.383 59.6267C111.27 59.7575 110.092 59.8884 108.782 59.8884C107.145 59.8884 105.378 59.7575 103.283 59.4958C100.991 59.1686 98.6342 58.7106 96.67 57.4673Z" fill="#2B0910"/>
<path d="M116.508 70.1616C114.74 71.0123 112.514 71.5357 109.83 71.732C108.979 71.7975 108.193 71.7975 107.473 71.7975C105.771 71.7975 104.265 71.6666 102.956 71.3394C102.104 71.1431 101.188 70.816 100.206 70.3579C102.104 74.0222 104.723 77.2285 108.324 79.3224C111.925 77.2285 114.609 73.9568 116.508 70.1616Z" fill="#2B0910"/>
<path d="M103.348 69.769C105.116 70.1616 107.145 70.2925 109.764 70.0962C113.496 69.8345 116.115 68.9184 117.817 67.2825C118.341 65.843 118.799 64.2726 119.192 62.7021C116.115 64.5343 112.187 65.4504 107.211 65.4504C106.818 65.4504 106.36 65.4504 105.967 65.4504C103.414 65.3849 100.271 65.0578 97.7831 63.5528C98.1104 64.9269 98.5687 66.301 99.027 67.6097C100.336 68.7875 102.039 69.4419 103.348 69.769Z" fill="#2B0910"/>
<path d="M99.682 19.5805C99.8784 19.5805 100.009 19.6459 100.206 19.6459C100.402 19.5805 100.664 19.5151 100.926 19.3842C101.777 18.9916 102.432 18.3372 102.825 17.552C103.283 16.7014 103.479 15.3927 102.956 14.4766C102.694 13.9531 102.235 13.6914 101.646 13.626C101.515 13.626 101.319 13.6259 101.122 13.6914C98.8309 15.3272 97.0631 17.6175 99.682 19.5805ZM102.17 15.7199C102.235 16.3742 101.712 17.0286 101.057 17.094C100.926 17.094 100.86 17.094 100.73 17.0285C100.468 16.8977 100.468 16.5705 100.599 16.3088C100.73 16.1125 100.991 15.9161 101.188 15.7853L100.926 16.047C101.188 15.6544 101.777 15.5236 102.17 15.7199Z" fill="#2B0910"/>
<path d="M113.693 17.5521C114.086 18.3373 114.74 18.9916 115.591 19.3842C115.853 19.5151 116.115 19.5805 116.312 19.6459C116.508 19.6459 116.639 19.6459 116.835 19.5805C119.454 17.6175 117.687 15.3273 115.33 13.626C115.133 13.626 115.002 13.5605 114.806 13.5605C114.217 13.626 113.758 13.9531 113.496 14.4112C113.104 15.3927 113.3 16.7014 113.693 17.5521ZM115.33 15.8507C115.591 15.9816 115.788 16.1125 115.919 16.3742C116.05 16.636 116.05 16.9631 115.788 17.094C115.657 17.1594 115.591 17.1595 115.461 17.1595C114.806 17.094 114.282 16.4396 114.348 15.7853C114.806 15.589 115.33 15.7853 115.591 16.1779L115.33 15.8507Z" fill="#2B0910"/>
<path d="M87.4388 62.7021C89.272 60.4119 90.1886 57.729 91.0397 55.0462C91.3016 54.261 91.5635 53.4758 91.8254 52.756C93.1348 49.288 95.0335 45.9509 96.8667 42.7446C97.4559 41.7631 97.9797 40.7816 98.5034 39.7346C99.0272 40.2581 99.551 40.7161 100.14 41.1742C99.0272 42.1557 97.9142 43.1372 96.9976 44.315C96.8667 44.5113 96.7357 44.6422 96.6048 44.8385C94.3787 47.9793 93.855 52.0363 93.3312 55.7006C93.3312 55.8315 93.2657 56.0278 93.3312 56.1587C93.3967 56.355 93.5276 56.4858 93.6586 56.5512C93.3312 57.271 93.1348 58.2526 93.0039 58.7106C92.3491 61.328 92.1527 64.0108 91.8254 66.6282C91.8254 66.8245 91.7599 67.0207 91.8254 67.217C92.0218 67.7405 92.611 67.806 93.1348 67.8714C93.3967 67.8714 93.724 67.8714 93.9859 67.6751C94.3133 67.3479 94.1823 66.8245 94.0514 66.4319C93.3312 63.9454 93.5931 61.1971 94.7716 58.9069C94.968 58.5143 95.3608 57.5982 95.4263 56.8784C95.4263 56.8784 95.4263 56.8784 95.4918 56.8784C96.0155 56.6821 96.3429 55.6352 96.6048 54.3919C96.6048 54.5882 96.6048 54.7191 96.6048 54.9154C96.6048 55.0463 96.6048 55.1117 96.6048 55.2426C98.3725 57.0093 100.991 57.5327 103.61 57.8599C107.146 58.318 109.764 58.318 112.252 57.9908C115.264 57.5982 117.948 56.4858 119.978 54.9154L120.174 55.1117C120.174 55.0462 120.174 54.9808 120.174 54.9154C120.174 54.7845 120.174 54.5882 120.174 54.4573C120.436 55.7006 120.764 56.7475 121.287 56.9438C121.287 56.9438 121.287 56.9438 121.353 56.9438C121.418 57.7291 121.811 58.5797 122.008 58.9723C123.186 61.2625 123.448 64.0108 122.728 66.4973C122.597 66.9553 122.466 67.4788 122.793 67.7405C122.99 67.9368 123.317 67.9368 123.644 67.9368C124.168 67.9368 124.823 67.806 124.954 67.2825C125.019 67.0862 125.019 66.8899 124.954 66.6936C124.692 64.0108 124.43 61.3279 123.775 58.776C123.644 58.318 123.513 57.3365 123.121 56.6167C123.252 56.5513 123.382 56.4204 123.448 56.2241C123.513 56.0932 123.448 55.8969 123.448 55.766C122.859 52.0363 122.335 48.0448 120.174 44.9039C120.043 44.7076 119.913 44.5767 119.782 44.3804C118.865 43.2026 117.752 42.2211 116.639 41.2396C117.228 40.847 117.752 40.389 118.21 39.8C118.734 40.7816 119.323 41.7631 119.847 42.7446C121.68 45.9509 123.579 49.288 124.888 52.756C125.15 53.5413 125.412 54.261 125.674 55.0462C126.591 57.6636 127.507 60.4119 129.275 62.7021C131.959 66.0393 135.953 67.6097 139.75 68.9838C143.089 70.1616 146.952 71.1431 150.095 69.1801C151.011 68.5912 151.666 67.8714 151.993 67.0207C152.517 65.7775 152.19 64.4688 151.928 63.5527C150.422 58.5797 146.166 54.9808 142.435 51.9054C137.459 47.7176 132.483 43.2681 127.704 38.8185C126.46 37.7061 125.281 36.5283 124.037 35.3505C123.775 35.0888 123.513 34.7616 123.186 34.4344C123.055 34.3036 122.924 34.1727 122.793 34.0418C123.972 33.7146 125.085 33.0603 126.132 32.4059C127.376 31.6207 128.686 30.6392 128.882 29.1997C129.93 29.0034 130.912 28.349 131.566 27.5638C132.221 26.7786 132.352 25.8625 133.007 25.1427C133.269 24.8155 133.596 24.4884 133.531 24.0303C133.531 23.8995 133.465 23.7686 133.4 23.6377C133.792 23.1143 134.054 22.1328 134.251 21.8056C134.774 20.8241 135.364 19.8425 136.018 18.9265C136.149 18.7302 136.28 18.5338 136.477 18.403C136.673 18.2721 136.935 18.2067 137 18.0104C137.066 17.7486 136.673 17.5523 136.411 17.4869C135.887 17.4215 135.298 17.356 135.036 17.7486C134.905 17.9449 134.905 18.2067 134.84 18.403C134.578 19.9734 133.465 21.1512 132.614 22.5254C132.548 22.6562 132.483 22.7216 132.418 22.8525C131.763 22.7216 131.108 23.1143 130.584 23.7032C129.406 25.0119 128.227 26.3205 127.573 27.9564C126.656 28.1527 125.805 28.807 125.019 29.3305C124.168 29.9194 123.383 30.5738 122.531 31.1627C122.008 31.5553 121.418 31.9479 120.895 32.4059C120.96 29.0033 120.109 26.3205 118.669 24.2921C118.734 24.2921 118.8 24.2921 118.8 24.2266C119.913 23.6377 120.895 22.7216 121.877 21.871C122.335 21.4784 122.662 20.9549 122.597 20.366C122.662 20.366 122.662 20.366 122.728 20.366C123.382 19.9734 123.71 19.1882 123.71 18.4684C123.644 17.5523 123.121 16.6362 123.448 15.7856C124.234 15.7201 125.019 15.851 125.805 16.1782C126.001 16.2437 126.263 16.3745 126.46 16.3745C126.852 16.3745 127.18 15.9819 127.245 15.6547C127.376 15.2621 127.311 14.8695 127.245 14.4769C125.674 14.0189 122.4 12.7756 121.222 14.4115C121.156 14.4769 121.156 14.5424 121.091 14.5424C120.698 15.1967 120.895 18.3376 121.615 19.7117C121.418 19.7117 121.222 19.7771 121.091 19.8425C120.633 20.1697 120.305 20.6278 119.913 21.0858C119.323 21.7401 117.883 21.9364 116.901 22.3945C115.788 21.413 114.478 20.6932 113.104 20.2351C113.955 20.3006 114.871 20.3006 115.657 20.1043C115.526 20.0388 115.33 20.0388 115.199 19.908C114.217 19.4499 113.496 18.7302 112.973 17.8141C112.711 17.2252 112.449 16.5054 112.449 15.7202C112.449 15.1967 112.58 14.6732 112.776 14.2152C113.104 13.6263 113.627 13.2991 114.282 13.1028C113.889 12.8411 113.496 12.6448 113.104 12.4485L114.806 11.925C115.722 11.6632 117.621 11.0743 118.21 9.37303L119.389 6.03586C119.913 4.46544 120.502 3.09132 121.287 2.56785C122.008 2.37154 122.4 1.65177 122.139 0.931988C121.942 0.212209 121.222 -0.18038 120.502 0.0813579C120.371 0.146792 120.174 0.212219 120.043 0.277653C118.21 1.52091 117.425 3.61481 116.901 5.18523L115.722 8.52235C115.526 8.9804 114.478 9.30758 114.02 9.50388L109.83 10.8126C109.568 10.878 109.372 11.0743 109.241 11.2052C109.044 11.2052 108.848 11.0743 108.651 11.0743C108.455 11.0743 108.259 11.0743 108.062 11.0743C107.866 11.0743 107.669 11.0743 107.473 11.0743C107.277 11.0743 107.015 11.2052 106.818 11.2052C106.687 11.0089 106.556 10.8126 106.295 10.7472L102.104 9.43848C101.646 9.30761 100.599 8.98039 100.402 8.52235L99.2236 5.18523C98.5034 3.2222 97.7832 1.39 96.1465 0.343051C96.0155 0.212182 95.7537 0.0813568 95.6227 0.0813568C94.9025 -0.114946 94.0514 0.212208 93.855 0.931986C93.7895 1.06286 93.7895 1.25916 93.7895 1.39003C93.7895 1.9135 94.0514 2.37153 94.5752 2.5024C95.6227 3.15674 96.1465 4.53089 96.7357 6.10131L97.9142 9.43848C98.5034 11.1398 100.402 11.7287 101.319 11.9904L103.021 12.5139C102.628 12.7102 102.235 12.9065 101.842 13.1682C102.497 13.2991 103.021 13.6917 103.348 14.2806C103.938 15.393 103.676 16.9634 103.217 17.9449C102.759 18.861 101.973 19.5808 100.991 20.0388C100.795 20.1043 100.664 20.1697 100.533 20.2351C101.319 20.4969 102.17 20.4969 103.086 20.366C101.646 20.8241 100.402 21.6093 99.2891 22.5254C98.307 22.1328 96.8667 21.871 96.2774 21.2166C95.8846 20.824 95.5572 20.3005 95.0989 19.9734C94.968 19.8425 94.7716 19.8425 94.5752 19.8425C95.2954 18.403 95.5572 15.3275 95.0989 14.6732C95.0335 14.6078 95.0335 14.5424 94.968 14.5424C93.7895 12.9065 90.4505 14.1497 88.9446 14.6078C88.8792 15.0004 88.8137 15.393 88.9446 15.7856C89.0756 16.1782 89.3375 16.5054 89.7303 16.5054C89.9922 16.5054 90.1886 16.4399 90.385 16.3091C91.1052 15.9819 91.9563 15.851 92.742 15.9165C93.0693 16.7671 92.4801 17.6832 92.4801 18.5993C92.4146 19.319 92.8074 20.1043 93.4622 20.4969C93.5276 20.4969 93.5276 20.4969 93.5931 20.4969C93.5276 21.0203 93.855 21.6093 94.3133 22.0019C95.2954 22.8525 96.2774 23.7686 97.3904 24.3575C97.4559 24.3575 97.5214 24.3575 97.5214 24.4229C96.081 26.4514 95.2299 29.1342 95.2954 32.5368C94.7716 32.1442 94.1824 31.7516 93.6586 31.2936C92.8075 30.7046 92.0218 30.0503 91.1707 29.4614C90.385 28.8725 89.5994 28.2836 88.6173 28.0873C87.9626 26.4514 86.7841 25.0773 85.6056 23.834C85.0819 23.3106 84.4271 22.8525 83.7724 22.9834C83.7069 22.8525 83.6415 22.7871 83.576 22.6562C82.7249 21.3475 81.6119 20.1043 81.35 18.5339C81.2845 18.2721 81.2845 18.0758 81.1536 17.8795C80.8917 17.4869 80.237 17.4869 79.7787 17.6178C79.5168 17.6832 79.124 17.814 79.1894 18.1412C79.2549 18.3375 79.5168 18.403 79.7132 18.5339C79.9096 18.6647 80.0406 18.861 80.1715 19.0573C80.8262 19.9734 81.4155 20.9549 81.9392 21.9364C82.1356 22.2636 82.3975 23.2451 82.7904 23.7686C82.7249 23.8995 82.6594 24.0304 82.6594 24.1612C82.594 24.5538 82.9213 24.9464 83.1832 25.2736C83.8379 25.9934 83.9688 26.9749 84.6236 27.6946C85.2783 28.5453 86.2603 29.1342 87.3079 29.3305C87.5043 30.7701 88.8137 31.7516 90.0576 32.5368C91.1052 33.1912 92.2182 33.8455 93.3967 34.1727C93.2657 34.3036 93.1348 34.4344 93.0039 34.5653C92.6765 34.8924 92.4146 35.2196 92.1527 35.4814C90.9743 36.6592 89.7303 37.7715 88.4864 38.9494C83.7724 43.3335 78.8621 47.7176 73.7553 52.0363C70.0235 55.1771 65.8333 58.7106 64.3275 63.6836C64.1311 64.207 64.0001 64.9268 64.0001 65.6466C64.0001 66.1047 64.0656 66.6282 64.262 67.0862C64.5894 67.9368 65.2441 68.6566 66.1607 69.2455C69.3033 71.2086 73.1661 70.2924 76.5051 69.0492C80.5643 67.6751 84.7545 65.9738 87.4388 62.7021ZM119.847 50.5313C119.716 50.5967 119.52 50.6622 119.389 50.7276C116.115 52.4289 112.514 53.345 108.39 53.345C106.033 53.345 103.545 53.0832 100.926 52.4943C99.8129 52.298 98.438 51.7091 97.1285 50.793C96.9976 50.6622 96.8012 50.6622 96.6702 50.5313C96.7357 49.8769 96.8667 49.2226 96.9976 48.5682C97.194 48.83 97.4559 48.8954 97.7178 49.0917C98.8963 50.0732 100.206 50.6621 101.253 50.8584C108.193 52.3634 113.955 51.7091 118.8 49.0917C119.061 48.9609 119.323 48.8954 119.585 48.7645C119.716 49.3534 119.782 49.9424 119.847 50.5313ZM118.407 45.4274C118.014 45.6892 117.556 45.7545 117.163 45.9509C114.478 47.325 111.467 48.1756 108.39 48.1756C108.128 48.1756 107.8 48.1756 107.473 48.1756C106.033 48.1102 102.104 47.7176 99.42 46.0163C99.0272 45.7546 98.6344 45.6237 98.307 45.2965C98.5689 44.773 98.8963 44.315 99.2236 43.857C99.4855 44.1841 99.9438 44.3804 100.337 44.6422C102.235 45.82 105.116 46.3435 107.538 46.4743C110.616 46.6052 113.627 45.9509 116.246 44.5767C116.639 44.3804 117.097 44.1841 117.49 43.9224C117.817 44.3804 118.079 44.9039 118.407 45.4274ZM140.667 53.803C144.268 56.8784 148 60.0193 149.309 64.2725C149.571 65.0577 149.571 65.5812 149.44 65.9738C149.309 66.301 149.047 66.6282 148.589 66.8899C146.428 68.264 143.286 67.4133 140.47 66.4973C137 65.254 133.4 63.8145 131.174 61.0662C129.668 59.1686 128.817 56.813 127.965 54.2611C127.704 53.4758 127.442 52.6906 127.114 51.9054C125.739 48.2411 123.775 44.773 121.877 41.5013C121.091 40.1272 120.371 38.8185 119.651 37.4444C119.585 37.2481 119.454 37.1172 119.389 36.9209C118.865 35.9394 118.603 34.4344 118.538 34.2381C118.538 34.2381 118.734 34.2381 119.127 34.369C119.52 34.4998 119.978 35.0233 120.502 35.5468C120.698 35.7431 120.895 36.0048 121.091 36.2011C121.418 36.5937 121.746 36.9864 122.073 37.2481C123.317 38.4259 124.495 39.5383 125.739 40.7161C130.65 45.1657 135.626 49.6152 140.667 53.803ZM90.7124 40.6507C91.9563 39.4729 93.2003 38.3605 94.3788 37.1827C94.7061 36.9209 95.0335 36.5283 95.3608 36.1357C95.5572 35.9394 95.7536 35.6777 95.9501 35.4814C96.4084 34.9579 96.9321 34.4998 97.325 34.3035C97.5214 34.2381 97.6523 34.1727 97.7178 34.1727C97.7833 34.7616 97.5214 36.0048 97.0631 36.8555C96.9976 37.0518 96.8667 37.1827 96.8012 37.379C96.081 38.7531 95.2954 40.1272 94.5752 41.4359C92.6765 44.7731 90.7778 48.1756 89.4029 51.84C89.1411 52.6252 88.8137 53.4104 88.5518 54.1956C87.7007 56.7475 86.915 59.1032 85.3437 61.0008C83.1177 63.749 79.5168 65.1886 75.9814 66.4319C73.2316 67.4134 70.089 68.1986 67.9284 66.8244C67.4701 66.5627 67.2082 66.2355 67.0773 65.9084C66.9463 65.5158 66.9463 64.9923 67.2082 64.2071C68.5176 59.9538 72.2495 56.813 75.8504 53.803C81.0226 49.4843 85.9984 45.1002 90.7124 40.6507Z" fill="#2B0910"/>
<path d="M179.064 138.735C178.894 138.493 178.675 138.276 178.456 138.082C178.237 137.889 177.97 137.695 177.702 137.55L155.419 124.951L153.157 123.669L132.942 112.231L130.68 110.949L128.734 109.837L126.471 108.555L124.209 107.273L120.195 105L116.79 106.935L114.43 108.265L111 110.199L119.49 115.012L121.752 116.293L124.014 117.575L126.009 118.688L128.272 119.969L148.559 131.456L150.822 132.738L173.202 145.41C173.469 145.555 173.761 145.676 174.053 145.772C174.345 145.869 174.637 145.917 174.929 145.966C175.221 145.99 175.513 146.014 175.805 145.99C176.097 145.966 176.388 145.917 176.656 145.845C177.775 145.531 178.772 144.805 179.405 143.717C180.037 142.629 180.135 141.395 179.843 140.283C179.697 139.751 179.429 139.219 179.064 138.735Z" fill="#2B0910"/>
<path d="M36.8777 79.79C37.3378 79.6688 37.7736 79.4506 38.1611 79.1598C38.5485 78.8689 38.8875 78.481 39.1296 78.0447L42.6165 71.912L42.9313 71.3545L43.6093 71.7423L44.9653 72.518L42.9555 76.0813C42.7134 76.5176 42.5439 77.0024 42.4954 77.4872C42.4712 77.7296 42.4712 77.972 42.4712 78.2144C42.5197 78.6992 42.6407 79.1598 42.8587 79.5961C43.1734 80.2506 43.6819 80.8081 44.3599 81.1717C44.7958 81.4141 45.2801 81.5838 45.7644 81.6322C46.2487 81.6807 46.733 81.6565 47.193 81.5353C47.411 81.4626 47.6531 81.3898 47.871 81.2929C48.3069 81.0747 48.6943 80.7838 49.0091 80.4202C49.1786 80.2263 49.3239 80.0324 49.445 79.8142L51.4548 76.2509L59.276 80.7111L61.5279 81.9958L82.1586 93.7522L84.4106 95.037L86.3477 96.152L88.5996 97.4367L90.8516 98.7214L94.847 101L98.2612 99.0608L100.61 97.7276L104 95.7884L95.0407 90.6738L92.7887 89.389L90.5368 88.1043L88.5512 86.965L86.2993 85.6803L80.1004 82.1413L66.6856 74.5057L64.4337 73.2209L55.9829 68.3972L57.9927 64.8339C58.3801 64.1552 58.5254 63.428 58.4769 62.7008C58.4285 61.9736 58.1621 61.2949 57.7263 60.7131C57.4357 60.3253 57.0483 59.9859 56.6124 59.7435C55.9344 59.3557 55.208 59.2102 54.4816 59.2587C54.2394 59.2829 53.9973 59.3072 53.7793 59.3799C53.1013 59.5738 52.4475 59.9617 51.9633 60.5192C51.7938 60.7131 51.6485 60.907 51.5274 61.1252L49.5176 64.6885L47.5078 63.5249L47.7015 63.1856L51.3095 56.8347C51.5758 56.3984 51.7211 55.9136 51.7695 55.4288C51.8664 54.7016 51.7211 53.9744 51.4063 53.3441C51.0915 52.6897 50.583 52.1321 49.905 51.7685C49.4692 51.5261 48.9849 51.3565 48.5006 51.308C48.2585 51.2837 48.0163 51.2837 47.7742 51.2837C47.4352 51.308 47.1204 51.4049 46.8056 51.5019C46.4424 51.6231 46.1034 51.7928 45.7886 52.0352C45.4012 52.3261 45.0622 52.7139 44.82 53.1502L42.2049 57.7316L40.9941 59.8405L39.7108 59.1133L38.9843 58.7012L44.1178 49.6839C44.2389 49.4657 44.3357 49.2233 44.4326 49.0052C44.6747 48.3022 44.6747 47.5508 44.481 46.8721C44.4084 46.6539 44.3357 46.4115 44.2389 46.1933C44.0694 45.8782 43.8514 45.5873 43.6093 45.2965C43.3672 45.0298 43.0766 44.7874 42.7618 44.5935C42.0838 44.2057 41.3574 44.0602 40.6309 44.1087C39.6866 44.1814 38.7664 44.6177 38.1126 45.3692C37.9431 45.5631 37.7978 45.757 37.6768 45.9752L32.5433 54.9925L30.5335 53.8532L36.4661 43.43C36.7082 42.9937 36.8777 42.5089 36.9261 42.0241C36.9746 41.5393 36.9503 41.0545 36.8293 40.5939C36.7566 40.3757 36.684 40.1333 36.5871 39.9152C36.3692 39.4788 36.0786 39.091 35.7154 38.7759C35.667 38.7274 35.5943 38.7032 35.5459 38.6547C35.4006 38.5335 35.2795 38.4365 35.11 38.3396C34.6742 38.0729 34.1899 37.9275 33.7056 37.879C33.4635 37.8548 33.2213 37.8548 32.9792 37.8548C32.4949 37.9032 32.0348 38.0244 31.599 38.2426C30.9452 38.5577 30.3882 39.0668 30.025 39.7455L24.0925 50.1687L22.1796 49.0779L22.0827 49.0052L26.8529 40.5939C27.0951 40.1576 27.2646 39.6728 27.313 39.188C27.4825 37.7578 26.8045 36.2792 25.4485 35.5035C25.2306 35.3823 24.9884 35.2853 24.7705 35.1884C24.0683 34.946 23.3176 34.946 22.6396 35.1399C21.7195 35.3823 20.8962 35.9883 20.3877 36.8852L15.6175 45.2965L13.6077 44.1329L15.6175 40.5696C15.7385 40.3515 15.8354 40.1091 15.9322 39.8909C16.1744 39.188 16.1744 38.4365 15.9807 37.7578C15.908 37.5396 15.8354 37.2972 15.7385 37.0791C15.5206 36.6428 15.23 36.2549 14.8668 35.9398C14.6731 35.7701 14.4794 35.6247 14.2615 35.5035C13.8256 35.2368 13.3413 35.0914 12.857 35.0429C12.3727 34.9944 11.8884 35.0187 11.4284 35.1399C11.2104 35.2126 10.9683 35.2853 10.7504 35.3823C10.3145 35.6004 9.92707 35.8913 9.61229 36.2549C9.44279 36.4488 9.2975 36.6428 9.17643 36.8609L0.483458 51.8655C0.2171 52.3018 0.0718137 52.7866 0.0233849 53.2714C-0.0250439 53.7562 -0.000829459 54.241 0.120243 54.7016C0.362386 55.6227 0.967746 56.4469 1.86368 56.9559C2.29954 57.1983 2.78383 57.368 3.26811 57.4165C3.7524 57.4649 4.23669 57.4407 4.69676 57.3195C5.15684 57.1983 5.5927 56.9801 5.98013 56.6893C6.36756 56.3984 6.70656 56.0105 6.9487 55.5742L8.9585 52.0109L10.9683 53.1745L6.19806 61.5857C6.07698 61.8039 5.98013 62.0463 5.88327 62.2645C5.73798 62.725 5.66534 63.2098 5.71377 63.6946C5.71377 63.6946 5.71377 63.6946 5.71377 63.7189C5.73798 63.9613 5.7622 64.2037 5.83484 64.4218C5.95591 64.8824 6.17384 65.3187 6.46441 65.7065C6.75499 66.0944 7.14242 66.4337 7.57828 66.6761C8.01414 66.9185 8.49842 67.0882 8.98271 67.1367C9.22486 67.1609 9.467 67.1609 9.70914 67.1609C10.1934 67.1125 10.6535 66.9913 11.0894 66.7731C11.5252 66.5549 11.9127 66.2641 12.2274 65.9005C12.3969 65.7065 12.5422 65.5126 12.6633 65.2945L16.5376 58.483L17.4578 56.8832L19.4675 58.0467L13.535 68.4699C13.1476 69.1486 13.0023 69.8758 13.0507 70.603C13.0749 70.8454 13.0992 71.0878 13.1718 71.306C13.2929 71.7665 13.5108 72.2029 13.8014 72.5907C14.0919 72.9785 14.4794 73.3179 14.9152 73.5603C15.5932 73.9482 16.3197 74.0936 17.0461 74.0451C17.5304 73.9966 17.9905 73.8754 18.4263 73.6573C18.8622 73.4391 19.2496 73.1482 19.5644 72.7846C19.7339 72.5907 19.8792 72.3968 20.0003 72.1786L25.9328 61.7554L27.9426 62.9189L22.8091 71.9362C22.5912 72.2756 22.4459 72.7604 22.3975 73.2452C22.2764 74.2148 22.5428 75.1844 23.1481 75.9601C23.4387 76.3479 23.8261 76.6873 24.262 76.9297C24.6979 77.1963 25.1821 77.3418 25.6664 77.3902C26.1507 77.4387 26.635 77.4145 27.0951 77.2933C27.5552 77.1721 27.991 76.9539 28.3784 76.663C28.7659 76.3721 29.1049 75.9843 29.347 75.548L32.5433 69.9243L34.4805 66.5307L36.4903 67.6942L32.6886 74.3845C32.3012 75.0632 32.1559 75.7904 32.2043 76.5176C32.2527 77.2448 32.5191 77.9235 32.955 78.5053C33.2455 78.8931 33.633 79.2325 34.0688 79.4749C34.5047 79.7173 34.989 79.887 35.4733 79.9354C35.9333 79.9597 36.4176 79.9112 36.8777 79.79Z" fill="#2B0910"/>
<path d="M214.967 53.2296C214.918 52.7451 214.748 52.2607 214.505 51.8246L212.367 48.0699L208.117 40.633L205.955 36.8541C205.833 36.636 205.688 36.418 205.517 36.2485C205.202 35.8851 204.789 35.5702 204.376 35.3764C204.157 35.2795 203.939 35.1826 203.696 35.1341C203.234 35.013 202.748 34.9646 202.263 35.0372C201.777 35.0857 201.291 35.2553 200.854 35.4975C200.635 35.6186 200.416 35.764 200.246 35.9335C199.882 36.2485 199.566 36.6603 199.372 37.0721C199.275 37.2901 199.178 37.5081 199.129 37.7504C199.129 37.7746 199.129 37.7988 199.105 37.823C198.983 38.2591 198.959 38.7193 199.008 39.1796C199.056 39.6641 199.226 40.1486 199.469 40.5846L199.833 41.2144L201.51 44.1455L200.076 44.9449L199.469 45.2841L197.793 42.353L195.631 38.5498L194.684 36.8783C193.785 35.3037 191.939 34.6497 190.287 35.1826C190.044 35.2553 189.826 35.3522 189.607 35.4975C188.927 35.8851 188.417 36.4422 188.101 37.0721C187.98 37.3143 187.883 37.5808 187.834 37.8473C187.785 38.041 187.737 38.2348 187.737 38.4286C187.712 38.6709 187.713 38.9131 187.761 39.1554C187.81 39.6398 187.98 40.1243 188.223 40.5604L190.433 44.4362L191.356 46.035L193.032 48.9662L191.55 49.814L190.992 50.1289L189.316 47.1978L185.041 39.6883C184.871 39.3734 184.628 39.1069 184.385 38.8889C184.093 38.6224 183.802 38.3802 183.437 38.2106C183 37.9926 182.539 37.8715 182.053 37.823C181.81 37.7988 181.567 37.7988 181.324 37.8473C180.838 37.8957 180.352 38.0653 179.915 38.3075C179.745 38.4044 179.624 38.5013 179.478 38.6224C179.429 38.6709 179.357 38.6951 179.308 38.7435C179.114 38.9131 178.944 39.0827 178.798 39.2765C178.506 39.6641 178.288 40.1001 178.166 40.5604C178.045 41.0206 177.996 41.4809 178.069 41.9654C178.069 41.9654 178.069 41.9654 178.069 41.9896C178.118 42.4741 178.288 42.9586 178.531 43.3946L182.806 50.9041L184.482 53.8352L182.466 54.998L180.79 52.0669L177.316 45.9866C177.195 45.7686 177.049 45.5505 176.879 45.381C176.442 44.8723 175.883 44.5331 175.251 44.3151C174.96 44.2182 174.668 44.1455 174.353 44.1213C173.624 44.0729 172.895 44.2182 172.215 44.6058C171.778 44.848 171.389 45.1872 171.098 45.5748C170.806 45.9624 170.588 46.3984 170.466 46.8587C170.345 47.3189 170.296 47.8034 170.369 48.2879C170.393 48.5059 170.442 48.7239 170.515 48.9419C170.588 49.2084 170.685 49.4506 170.831 49.6929L174.304 55.7732L175.98 58.7043L174.061 59.7944L173.964 59.8428L172.75 57.7353L172.288 56.9117L170.15 53.1569C169.908 52.7209 169.567 52.3333 169.179 52.0426C168.814 51.7762 168.402 51.5582 167.964 51.437C167.94 51.437 167.916 51.4128 167.891 51.4128C167.43 51.2917 166.944 51.2432 166.458 51.3159C165.972 51.3644 165.487 51.5339 165.049 51.7762C164.612 52.0426 164.224 52.3575 163.932 52.7451C163.349 53.5203 163.082 54.4893 163.179 55.4582C163.228 55.9185 163.373 56.403 163.641 56.839V56.8633L165.778 60.618L167.26 63.21L167.454 63.5491L165.438 64.7119L163.762 61.7808L163.398 61.1509C163.276 60.9329 163.13 60.7149 162.96 60.5453C162.499 60.0124 161.867 59.6248 161.211 59.431C161.187 59.431 161.163 59.4068 161.139 59.4068C160.92 59.3341 160.677 59.3099 160.434 59.2857C159.705 59.2372 158.977 59.3826 158.297 59.7702C157.859 60.0124 157.471 60.3515 157.179 60.7391C156.888 61.1267 156.669 61.5627 156.548 62.023C156.305 62.9435 156.402 63.9609 156.912 64.8572L157.276 65.4871L158.952 68.4182L156.013 70.0897L150.499 73.2146L148.24 74.4985L134.735 82.1775L128.541 85.6901L126.282 86.9739L124.266 88.1367L122.007 89.4206L119.748 90.7045L107.335 97.7537L103.934 99.6916L101.578 101.024L98.1532 102.962L90.7446 107.177L88.4855 108.461L86.2265 109.745L84.2833 110.859L82.0243 112.143L78.0892 114.372L61.8388 123.601L59.5798 124.885L37.3053 137.53C37.0381 137.675 36.7709 137.869 36.5523 138.063C36.3337 138.257 36.1151 138.475 35.9451 138.717C35.5807 139.177 35.3378 139.71 35.1678 140.267C34.852 141.381 34.9734 142.617 35.605 143.707C36.2365 144.797 37.2325 145.524 38.3498 145.839C38.6413 145.911 38.9085 145.96 39.2 145.984C39.4915 146.008 39.783 146.008 40.0745 145.96C40.6574 145.887 41.2404 145.718 41.7748 145.403L64.1707 132.685L66.4297 131.401L86.6638 119.919L88.9228 118.635L90.8903 117.521L93.1493 116.237L95.4084 114.953L107.311 108.194L110.736 106.256L113.092 104.924L116.493 102.986L123.901 98.7711L126.16 97.4872L128.419 96.2034L130.362 95.089L132.622 93.8052L153.317 82.0564L155.576 80.7725L160.483 77.9868L163.422 76.3153L165.098 79.2464L165.462 79.8762C165.584 80.0943 165.73 80.3123 165.9 80.4818C166.215 80.8452 166.628 81.1601 167.041 81.3539C167.26 81.4508 167.478 81.5477 167.721 81.5962C168.183 81.7173 168.669 81.7657 169.155 81.6931C169.64 81.6446 170.126 81.475 170.563 81.2328C171.243 80.8452 171.754 80.2881 172.069 79.6582C172.191 79.416 172.264 79.1737 172.337 78.9073C172.385 78.7135 172.434 78.4955 172.434 78.2774C172.458 78.0352 172.458 77.793 172.409 77.5507C172.361 77.0662 172.191 76.5818 171.948 76.1457L171.584 75.3705L169.908 72.4394L171.268 71.6642L171.948 71.2767L172.069 71.4947L173.624 74.2078L175.762 77.9625C175.762 77.9868 175.786 77.9868 175.786 77.9868C175.956 78.2774 176.174 78.5439 176.417 78.7861C176.442 78.8104 176.442 78.8346 176.466 78.8588C176.733 79.1011 177.025 79.2949 177.34 79.4644C177.559 79.5613 177.778 79.6582 178.021 79.7067C178.482 79.8278 178.968 79.8762 179.454 79.8036C179.94 79.7551 180.425 79.5855 180.863 79.3433C181.3 79.1011 181.688 78.7619 181.98 78.3743C182.223 78.0594 182.393 77.7203 182.514 77.3569C182.563 77.2358 182.587 77.1389 182.636 77.0178C182.684 76.824 182.733 76.606 182.733 76.388C182.782 75.9035 182.709 75.419 182.563 74.9587C182.49 74.7165 182.393 74.4985 182.247 74.2805L180.085 70.5257L178.409 67.5946L179.648 66.8921L180.45 66.4318L182.126 69.3629L183.632 71.9792L185.599 75.4432C185.745 75.6855 185.891 75.9035 186.085 76.0973C186.231 76.2668 186.401 76.4122 186.571 76.5575C186.96 76.8482 187.397 77.0662 187.858 77.1874C188.32 77.3085 188.806 77.3569 189.291 77.2843C189.777 77.2358 190.263 77.0662 190.7 76.824C191.672 76.2668 192.279 75.3463 192.498 74.3289C192.571 73.9413 192.619 73.5537 192.571 73.1661C192.522 72.6817 192.352 72.1972 192.109 71.7611L188.636 65.6809L186.959 62.7497L188.976 61.587L190.652 64.5181L194.927 72.0276C195.194 72.4879 195.534 72.8512 195.923 73.1419C196.117 73.2873 196.311 73.4084 196.53 73.5053C196.967 73.7233 197.429 73.8444 197.915 73.8929C198.643 73.9413 199.372 73.796 200.052 73.4084C200.489 73.1419 200.878 72.827 201.169 72.4394C201.461 72.0518 201.68 71.6158 201.801 71.1555C201.874 70.9375 201.898 70.6953 201.922 70.453C201.947 70.0654 201.898 69.6779 201.801 69.3145C201.728 68.9753 201.607 68.6604 201.437 68.3455L197.162 60.836L195.485 57.9049L197.502 56.7421L198.425 58.3409L199.178 59.649L202.311 65.1237C202.433 65.3417 202.578 65.5597 202.748 65.7293C203.064 66.0927 203.477 66.4076 203.89 66.6014C204.06 66.6983 204.254 66.7467 204.449 66.8194C204.716 66.8921 204.983 66.9647 205.25 66.989C205.493 67.0132 205.736 67.0132 205.979 66.9647C206.465 66.9163 206.951 66.7467 207.388 66.5045C207.825 66.2622 208.214 65.9231 208.505 65.5355C208.797 65.1479 209.015 64.7119 209.137 64.2516C209.21 64.0336 209.234 63.7914 209.258 63.5491C209.258 63.5491 209.258 63.5491 209.258 63.5249C209.283 63.0646 209.234 62.5802 209.088 62.0957C209.015 61.8534 208.918 61.6354 208.772 61.4174L207.825 59.7702L205.639 55.9427L203.963 53.0116L205.979 51.8488L207.655 54.78L208.019 55.4098C208.287 55.8458 208.602 56.2334 208.991 56.5241C209.355 56.7906 209.768 57.0086 210.206 57.1297C210.23 57.1297 210.254 57.1539 210.278 57.1539C210.74 57.2751 211.226 57.3235 211.712 57.2508C212.197 57.2024 212.683 57.0328 213.12 56.7906C213.339 56.6695 213.558 56.5241 213.728 56.3545C214.092 56.0396 214.408 55.6278 214.602 55.216C214.699 54.998 214.796 54.78 214.845 54.5377C214.991 54.1986 215.039 53.7141 214.967 53.2296Z" fill="#2B0910"/>
</svg>
