<svg width="22" height="32" viewBox="0 0 22 32" fill="none" xmlns="http://www.w3.org/2000/svg">
<path d="M0 20.9348C0 26.7919 4.75432 31.4892 10.5523 31.4892C16.4082 31.4892 21.1045 26.7339 21.1045 20.9348C21.1045 13.454 10.5523 0 10.5523 0C10.5523 0 0 13.396 0 20.9348ZM7.59531 27.4298C4.2325 26.212 3.13089 22.6166 3.65271 19.3691C4.05856 16.9914 5.27613 14.6138 6.66764 13.048C6.2038 13.5699 6.14583 15.3677 6.02987 16.0636C5.85593 17.1074 5.79795 18.2092 5.79795 19.3111C5.85593 21.4567 6.37774 23.4864 7.53733 25.2842C8.11712 26.154 8.92883 26.9659 9.91449 27.3718C9.21873 27.7198 8.34904 27.7198 7.59531 27.4298Z" fill="#2B0910"/>
</svg>
