<svg width="166" height="118" viewBox="0 0 166 118" fill="none" xmlns="http://www.w3.org/2000/svg">
<path d="M127.887 104.242V80.0698C127.887 79.5859 127.621 79.1504 127.209 78.9084L116.365 72.6415C116.244 70.6573 115.929 68.7216 115.01 67.3182C114.985 67.2698 114.937 67.2456 114.913 67.2214C114.937 66.8826 114.961 66.5439 114.985 66.2051C115.203 66.0116 115.397 65.7938 115.566 65.576C116.946 63.8339 118.326 62.0917 119.706 60.3495C119.996 59.9866 120.19 59.5994 120.359 59.2365C120.577 58.7283 120.674 58.2686 120.674 57.8089C120.94 57.4943 121.206 57.1798 121.497 56.8652C122.852 56.6474 124.111 56.2361 125.103 55.4618C126.386 54.4697 127.451 53.1147 128.274 51.5903C128.347 52.6066 128.541 53.7438 128.783 54.8811C129.582 58.6074 131.082 62.503 131.591 63.8581C131.688 64.1242 131.784 64.3662 131.954 64.584C132.147 64.8017 132.39 64.9227 132.656 65.0195C132.849 65.0679 133.043 65.0679 133.213 65.0679C133.334 65.3582 133.455 65.6728 133.576 65.9632C133.406 66.9552 133.527 68.1409 133.769 68.7458C134.762 71.1655 135.827 73.6819 137.86 75.3273C138.368 75.7386 138.974 76.1016 139.627 76.1016C139.651 76.1016 139.676 76.1016 139.7 76.1016C140.765 76.8759 141.999 77.3356 143.113 77.747C143.21 77.7712 143.307 77.7954 143.403 77.7954C143.766 77.7954 144.105 77.5776 144.226 77.2146C144.396 76.7549 144.154 76.271 143.694 76.1016C142.798 75.787 141.83 75.4483 141.007 74.916C141.007 74.311 140.499 73.8271 140.087 73.3432C138.417 71.4316 138.175 68.7216 137.255 66.3745C136.965 65.6728 136.577 64.9227 135.899 64.584C135.561 64.4146 135.27 64.3178 135.004 64.3178C135.246 64.0516 135.44 63.7613 135.536 63.4225C135.827 62.3821 135.343 61.3174 134.98 60.3011C134.738 59.6478 134.326 57.7605 133.769 55.6312C133.697 55.3166 133.6 55.0021 133.527 54.6875C133.479 54.5181 133.43 54.3487 133.382 54.1794C134.689 53.7438 136.48 53.0663 136.722 52.9211C138.175 52.0985 139.482 51.0096 140.523 49.6788C142.677 46.9446 143.137 44.0167 143.258 40.7986C139.579 39.5887 134.907 38.887 131.881 40.2905C131.107 40.6534 130.453 41.1615 129.945 41.8148C129.751 40.8228 129.436 39.8791 129.001 38.9596C129.703 38.7419 130.429 38.5241 131.131 38.2821C131.833 38.0644 132.559 37.8466 133.261 37.6046C140.886 35.064 146.986 32.5959 152.481 29.8859C155.264 28.5067 158.484 26.7645 161.195 24.3448C163.422 22.3607 164.898 20.2556 165.528 18.0779C166.375 15.1743 166.085 12.9724 164.632 11.4964C161.969 8.73794 156.426 9.82679 154.175 10.4317C150.883 11.3028 147.881 12.7062 145.074 14.4C145.485 13.4563 145.848 12.5126 146.114 11.5206C146.962 8.32659 146.865 3.77761 143.742 1.38214C140.983 -0.722976 137.303 -0.0696643 134.883 1.50312C132.39 3.1243 130.744 5.64076 129.267 8.06043C125.878 13.6741 122.925 19.6265 120.456 25.7482C120.262 26.208 119.996 26.7887 119.681 27.442C119.27 28.3131 118.81 29.2809 118.423 30.2488C118.786 30.2488 119.149 30.2488 119.512 30.273C119.875 30.2972 120.214 30.3214 120.553 30.3698C120.867 29.6439 121.206 28.918 121.497 28.3131C121.836 27.6356 122.126 27.0065 122.32 26.5225C124.74 20.5217 127.669 14.6661 130.986 9.12509C132.341 6.89899 133.818 4.6003 135.972 3.19689C137.763 2.03545 140.571 1.47893 142.532 2.97912C144.856 4.76968 144.88 8.42338 144.178 11.0124C143.645 13.045 142.701 14.9323 141.588 16.7471C138.538 18.949 135.657 21.417 132.849 23.8609L132.075 24.5384C129.412 26.8613 126.774 29.1116 124.087 31.3377C123.554 31.7732 123.022 32.2329 122.489 32.6685C122.417 32.7169 122.271 32.8379 122.078 32.983C121.327 32.7653 120.529 32.6201 119.754 32.5475C119.415 32.5233 119.076 32.4991 118.737 32.4991C118.398 32.4991 118.035 32.4991 117.696 32.5233C113.218 32.8621 108.934 35.5479 107.53 39.9033C107.481 39.7581 107.481 39.5887 107.409 39.4678C107.143 38.887 106.658 38.4273 106.174 38.0402C106.102 37.9918 106.005 37.9434 105.932 37.895C103.899 36.419 101.309 35.8625 98.8882 36.6609C98.1862 36.9029 97.6053 37.3385 97.1212 37.8708L95.1605 34.9914C94.87 34.58 94.5069 34.0235 93.8533 33.7089C92.643 33.104 91.3359 33.8299 90.7065 34.1445L88.9637 35.064C88.528 35.2817 88.3827 35.8141 88.6006 36.2496C88.8184 36.6851 89.3752 36.8303 89.7867 36.6126L91.5295 35.6931C92.1105 35.3785 92.7156 35.0882 93.1029 35.2817C93.3208 35.3785 93.5386 35.7173 93.7323 35.9834L96.1045 39.492C96.0803 39.5646 96.0561 39.6129 96.0319 39.6855C94.4585 39.2984 92.8609 38.9838 91.2633 38.7177C90.8033 38.6451 90.0772 38.5483 89.3994 38.7419C88.5038 39.008 87.947 39.7339 87.5113 40.2421L86.5673 41.4035C86.2526 41.7665 86.3252 42.323 86.6883 42.6375C86.8577 42.7585 87.0514 42.8311 87.245 42.8311C87.4871 42.8311 87.7534 42.7101 87.9228 42.5165L88.8669 41.3551C89.2542 40.8954 89.5688 40.5324 89.9077 40.4114C90.174 40.3147 90.5613 40.363 90.9728 40.4356C92.4978 40.6776 94.047 41.0164 95.5478 41.3793C95.3783 42.5649 95.4267 43.7748 95.5235 44.9846C95.7898 48.3722 96.3708 51.7597 97.218 55.0504C97.4358 55.8973 97.8231 56.8894 98.6946 57.0104C99.2271 57.1072 99.7596 56.7926 100.22 56.4781C102.858 54.6391 104.843 51.9291 105.932 48.9287C105.981 48.8319 106.029 48.7351 106.077 48.6141C106.368 47.743 106.828 46.3154 107.167 44.8152C107.481 47.2349 108.45 49.6062 109.757 51.6871C110.58 52.9937 111.572 54.2036 112.831 55.0988C111.984 55.2924 111.088 55.486 110.168 55.7522C109.176 56.0183 108.159 56.3329 107.215 56.6716C106.319 57.0104 105.472 57.3733 104.722 57.7605C104.383 57.9541 104.044 58.196 103.875 58.559C103.681 59.0187 103.85 59.551 104.141 59.9624C104.068 59.9866 103.996 59.9624 103.899 59.9866C103.584 60.0834 103.294 60.2527 103.076 60.4705C102.737 60.7851 102.495 61.2206 102.35 61.6561C101.769 63.4951 101.793 65.697 102.156 67.7779L83.3963 78.5938L64.1523 67.4876C64.4912 65.4792 64.4912 63.3983 63.9103 61.632C63.765 61.1964 63.523 60.7609 63.1841 60.4463C62.942 60.2285 62.6758 60.0592 62.3611 59.9624C62.2885 59.9382 62.2159 59.9624 62.119 59.9382C62.4337 59.551 62.6032 58.9945 62.3853 58.5348C62.2401 58.1718 61.9012 57.9299 61.5381 57.7363C60.7877 57.3249 59.9405 56.962 59.0448 56.6474C58.0766 56.3087 57.0841 55.9941 56.0917 55.728C55.1719 55.486 54.2762 55.2682 53.429 55.0746C54.6877 54.1794 55.6802 52.9695 56.5032 51.6629C57.8345 49.582 58.7786 47.2107 59.0933 44.791C59.4563 46.2912 59.8921 47.7188 60.1825 48.5899C60.2309 48.6867 60.2794 48.7835 60.3278 48.9045C61.417 51.9049 63.402 54.6149 66.0404 56.4539C66.5003 56.7684 67.0087 57.083 67.5654 56.9862C68.4368 56.841 68.8241 55.8489 69.042 55.0263C69.8892 51.7355 70.4459 48.348 70.7364 44.9604C70.8332 43.7748 70.8817 42.5407 70.7122 41.3551C72.2372 40.9922 73.7622 40.6534 75.2872 40.4114C75.6987 40.3388 76.086 40.2905 76.3523 40.3872C76.7153 40.5082 77.03 40.8712 77.3931 41.3309L78.3372 42.4924C78.5066 42.7101 78.7487 42.8069 79.0149 42.8069C79.2086 42.8069 79.4022 42.7343 79.5717 42.6133C79.9348 42.2988 80.0074 41.7665 79.6927 41.3793L78.7487 40.2179C78.3372 39.7097 77.7562 39.008 76.8606 38.7177C76.1828 38.4999 75.4566 38.6209 74.9967 38.6935C73.3991 38.9354 71.8015 39.2742 70.2281 39.6613C70.2039 39.5887 70.1797 39.5404 70.1555 39.4678L72.5277 35.9592C72.6971 35.6931 72.915 35.3785 73.1328 35.2575C73.5201 35.0882 74.1495 35.3543 74.7062 35.6689L76.4491 36.5884C76.8606 36.8061 77.3931 36.6609 77.6352 36.2254C77.853 35.7899 77.7078 35.2817 77.2721 35.0398L75.5292 34.1203C74.8999 33.7815 73.5928 33.0798 72.3824 33.6606C71.7289 33.9751 71.3658 34.5316 71.0753 34.943L69.1146 37.8224C68.6305 37.2901 68.0495 36.8545 67.3476 36.6126C64.9269 35.8141 62.3127 36.3706 60.3036 37.8466C60.2309 37.895 60.1341 37.9434 60.0615 37.9918C59.5532 38.3789 59.0933 38.8387 58.827 39.4194C58.7786 39.5404 58.7544 39.7097 58.706 39.8549C57.302 35.4995 53.0175 32.7895 48.5394 32.4749C48.2005 32.4507 47.8374 32.4507 47.4985 32.4507C47.1596 32.4507 46.8207 32.4749 46.4818 32.4991C45.683 32.5717 44.9084 32.6927 44.158 32.9347C43.9644 32.7895 43.8192 32.6927 43.7465 32.6201C43.214 32.1846 42.6815 31.7248 42.1489 31.2893C39.462 29.0632 36.8236 26.8129 34.1609 24.49L33.3863 23.8125C30.6268 21.3928 27.7705 18.9248 24.6963 16.7229C23.5828 14.9323 22.663 13.0208 22.1062 10.9882C21.4042 8.39919 21.4285 4.74548 23.7522 2.95492C24.5995 2.30161 25.5919 2.03545 26.6086 2.03545C27.9399 2.03545 29.2955 2.49519 30.3121 3.1485C32.4423 4.52771 33.943 6.8264 35.2986 9.07669C38.639 14.6177 41.5438 20.4733 43.9644 26.4741C44.158 26.9581 44.4485 27.5872 44.7874 28.2647C45.0779 28.8696 45.4168 29.5955 45.7314 30.3214C46.0703 30.273 46.4334 30.2488 46.7723 30.2246C47.1354 30.2004 47.4985 30.2004 47.8616 30.2004C47.4743 29.2326 47.0144 28.2889 46.6029 27.3936C46.2882 26.7403 46.0219 26.1596 45.8283 25.6998C43.3592 19.6023 40.4061 13.6499 37.0172 8.01204C35.5406 5.56817 33.8946 3.05171 31.4014 1.45473C28.9808 -0.118058 25.2772 -0.771369 22.5419 1.33374C19.4435 3.75342 19.3225 8.32659 20.1697 11.5206C20.436 12.5126 20.7991 13.4805 21.2106 14.4C18.4027 12.7062 15.4011 11.3028 12.1091 10.4317C9.8579 9.82679 4.31469 8.73794 1.6278 11.4964C0.19964 12.9724 -0.0908337 15.1985 0.756382 18.0779C1.38574 20.2556 2.86232 22.3607 5.08929 24.3448C7.82458 26.7645 11.0198 28.5067 13.8035 29.8859C19.2983 32.6201 25.3983 35.064 33.0232 37.6046C33.7252 37.8466 34.4514 38.0402 35.1534 38.2821C35.8553 38.4999 36.5815 38.7419 37.2835 38.9596C36.8478 39.8549 36.5331 40.8228 36.3395 41.8148C35.8311 41.1615 35.1776 40.6534 34.403 40.2905C31.3772 38.887 26.7054 39.5887 23.0261 40.7986C23.1229 44.0167 23.5828 46.9204 25.7614 49.6788C26.8022 51.0096 28.1094 52.0985 29.5617 52.9211C29.828 53.0663 31.6192 53.7196 32.9022 54.1794C32.8538 54.3487 32.8054 54.5181 32.7569 54.6875C32.6843 55.0021 32.5875 55.3166 32.5149 55.6312C31.9823 57.7605 31.5466 59.6478 31.3046 60.3011C30.9173 61.3174 30.4574 62.3821 30.7478 63.4225C30.8447 63.7613 31.0383 64.0516 31.2804 64.3178C31.0141 64.342 30.7236 64.4146 30.3847 64.584C29.707 64.9227 29.3197 65.6728 29.0292 66.3745C28.1094 68.7216 27.8673 71.4316 26.1971 73.3432C25.7856 73.8029 25.3014 74.311 25.2772 74.8918C24.4542 75.4241 23.486 75.7628 22.5903 76.0774C22.1304 76.2468 21.8884 76.7307 22.0578 77.1904C22.1788 77.5534 22.5177 77.7712 22.8808 77.7712C22.9776 77.7712 23.0745 77.747 23.1713 77.7228C24.2848 77.3356 25.5193 76.8759 26.5844 76.0774C26.6086 76.0774 26.6328 76.0774 26.657 76.0774C27.3106 76.0774 27.9157 75.7144 28.424 75.3031C30.4574 73.6577 31.5224 71.1413 32.5149 68.7216C32.7569 68.1167 32.878 66.931 32.7085 65.939C32.8296 65.6486 32.9506 65.3583 33.0716 65.0437C33.2653 65.0437 33.4589 65.0437 33.6284 64.9953C33.8946 64.9227 34.1609 64.7775 34.3303 64.5598C34.4998 64.3662 34.5966 64.1 34.6934 63.8339C35.2018 62.4788 36.7025 58.559 37.5013 54.8569C37.7434 53.7196 37.9371 52.6066 38.0097 51.5661C38.8327 53.0905 39.8978 54.4697 41.1807 55.4376C42.1731 56.1877 43.4319 56.6232 44.7874 56.841C45.0537 57.1556 45.3199 57.4701 45.6104 57.7847C45.6104 58.2202 45.7072 58.7042 45.9251 59.1881C46.0945 59.5752 46.2882 59.9382 46.5787 60.3011C47.9584 62.0433 49.3382 63.7855 50.7179 65.5276C50.8874 65.7454 51.081 65.9632 51.2989 66.1567C51.3231 66.4955 51.3473 66.8584 51.3715 67.173C51.3473 67.2214 51.2989 67.2456 51.2747 67.2698C50.3064 68.7458 49.9917 70.8267 49.8949 72.9076L39.6073 78.8358C39.1958 79.0778 38.9295 79.5133 38.9295 79.9973V104.146L18.0396 116.268C17.6281 116.51 17.3618 116.946 17.3618 117.43H18.6932H21.38L40.2609 106.541L59.1417 117.43H59.2385H60.473H61.8043H63.1357H64.4186H64.5154L83.3963 106.541L102.277 117.43H102.374H103.608H104.94H106.271H107.554H107.602L126.483 106.541L145.364 117.43H148.051H149.382C149.382 116.946 149.116 116.51 148.705 116.268L127.887 104.242ZM103.052 49.6304C102.325 51.2274 101.333 52.0985 100.268 52.0985C100.22 52.0985 100.195 52.0985 100.147 52.0985C99.2997 52.0501 98.5251 51.4209 98.1378 50.5015C97.7989 49.6788 97.7989 48.8077 97.8473 47.9608C97.9442 46.1945 98.2831 44.8636 98.8882 43.799C99.7112 42.323 100.825 41.6455 101.914 41.9116C103.173 42.2262 104.044 43.7506 104.068 45.6621C104.093 47.2107 103.512 48.6625 103.052 49.6304ZM64.4186 41.9116C65.5079 41.6455 66.6214 42.323 67.4444 43.799C68.0495 44.8878 68.3884 46.1945 68.4852 47.9608C68.5337 48.7835 68.5337 49.6788 68.1948 50.5015C67.8075 51.4209 67.0329 52.0501 66.1857 52.0985C66.1373 52.0985 66.0888 52.0985 66.0646 52.0985C64.9996 52.0985 64.0071 51.2274 63.2809 49.6304C62.8452 48.6625 62.2401 47.1865 62.2643 45.6621C62.2643 43.7506 63.1357 42.2504 64.4186 41.9116ZM61.8528 69.1813C61.9254 69.4959 61.998 69.7862 62.0948 70.0766C62.0706 70.8751 61.998 71.6736 61.8528 72.4721C61.6349 72.4721 61.3928 72.5205 61.1992 72.6415L53.2596 77.2388C53.6953 76.0532 53.9615 74.8676 54.0826 73.6819L61.8528 69.1813ZM72.5277 98.5803C72.6003 96.5478 72.7213 94.5153 72.8908 92.507C72.9634 91.3697 73.1086 90.2325 73.2297 89.0952C73.3507 87.958 73.4959 86.8207 73.6896 85.6835C73.8832 86.8207 74.0043 87.958 74.1495 89.0952C74.2947 90.2325 74.4158 91.3697 74.4884 92.507C74.682 94.7814 74.8273 97.0559 74.8999 99.3304C74.9241 99.7418 74.7062 100.129 74.3673 100.322L74.2947 100.371C70.446 102.791 66.5003 105.065 62.4821 107.194L62.4095 107.243C62.0464 107.436 61.6107 107.412 61.2718 107.194C59.3353 105.985 57.4472 104.75 55.5592 103.444C54.6151 102.815 53.6953 102.137 52.7754 101.436C51.8556 100.758 50.9358 100.081 50.0401 99.3304C51.1294 99.7176 52.1703 100.177 53.2112 100.637C54.2762 101.073 55.3171 101.532 56.3338 102.04C58.1734 102.912 59.9889 103.831 61.7801 104.775C65.3142 102.573 68.8725 100.516 72.5277 98.5803ZM51.9282 56.4781C52.4366 56.8652 52.9933 57.204 53.5258 57.5669C55.0992 58.6316 56.6968 59.6236 58.2702 60.6883C58.6333 60.9302 59.0448 61.1964 59.4806 61.2206C59.7468 61.2448 60.0131 61.148 60.2794 61.0512C59.9889 61.7529 59.9889 62.624 60.3278 63.2289C60.8361 64.221 61.1024 65.3099 61.3202 66.4229C61.2718 66.4471 61.2234 66.4229 61.1992 66.4471L54.1552 70.5121C54.1068 69.7862 54.0584 69.0845 53.9615 68.3344C53.8889 67.7053 53.6227 67.052 53.1143 66.7375C53.1385 66.7133 53.1627 66.7375 53.2112 66.7133C54.0342 66.2777 53.9615 65.0679 53.6711 64.1726C53.0659 62.2611 52.0251 60.2769 50.6453 58.68C50.0886 58.0266 49.4834 57.3975 48.8056 56.9136C48.7572 56.8652 48.7088 56.8652 48.6604 56.8168C49.6286 56.6716 50.5485 56.4055 51.4199 56.0667C51.4683 56.0909 51.5409 56.1151 51.5893 56.1393C51.6862 56.2845 51.8072 56.3813 51.9282 56.4781ZM41.7374 33.9993C41.2533 34.2897 40.7934 34.6284 40.3335 34.9914C40.0672 35.2091 39.8251 35.4269 39.5831 35.6689C39.341 35.9108 39.1232 36.1528 38.9053 36.419C38.6875 36.6609 38.4938 36.9271 38.3002 37.1933C37.574 36.9755 36.8478 36.7335 36.0974 36.4916C35.2744 36.2254 34.4514 35.9834 33.6284 35.7173C26.1002 33.2008 20.0729 30.7811 14.6749 28.0953C12.0365 26.7645 8.96227 25.1191 6.42063 22.8688C4.45993 21.1509 3.20121 19.3603 2.69288 17.5455C2.03931 15.3678 2.18455 13.8192 3.08017 12.8998C3.85477 12.1255 5.25873 11.7141 7.04999 11.7141C8.38133 11.7141 9.93052 11.9319 11.5765 12.3674C15.861 13.5047 19.6372 15.6098 23.1955 18.1021C24.0427 18.707 24.8899 19.3361 25.7371 19.9894C27.0443 21.0057 28.3272 22.0703 29.5859 23.135C30.4331 23.8609 31.2804 24.5868 32.1276 25.3369L32.9022 26.0144C35.3712 28.1437 37.816 30.2488 40.3093 32.3055C40.9144 32.8137 41.5196 33.3218 42.1247 33.8057C41.9795 33.8783 41.8585 33.9267 41.7374 33.9993ZM50.0886 78.9084C50.0644 78.9568 50.0401 79.0294 49.9917 79.102L44.9811 82.0056C44.5696 82.2476 44.3033 82.6831 44.3033 83.167V101.871C44.3033 102.355 44.5696 102.791 44.9811 103.033L61.1992 112.397C61.3928 112.518 61.6349 112.566 61.877 112.566C62.119 112.566 62.3369 112.518 62.5547 112.397L78.7729 103.033C79.1844 102.791 79.4506 102.355 79.4506 101.871V83.167C79.4506 82.6831 79.1844 82.2476 78.7729 82.0056L63.5472 73.2222C63.7408 72.2785 63.8619 71.3106 63.9103 70.3428L82.1375 80.8683V104.218L61.9254 115.881L41.689 104.218V80.8683L49.9191 76.1258C49.9191 76.6581 49.9191 77.1904 49.9191 77.6502C49.8707 78.0373 49.8949 78.5213 50.0886 78.9084ZM125.225 80.8199V104.17L104.988 115.833L84.7518 104.17V80.8199L102.447 70.6089C102.519 71.5768 102.64 72.5205 102.858 73.4641L88.1165 81.9814C87.705 82.2234 87.4387 82.6589 87.4387 83.1428V101.847C87.4387 102.331 87.705 102.766 88.1165 103.008L104.335 112.348C104.552 112.469 104.77 112.518 105.012 112.518C105.254 112.518 105.472 112.469 105.69 112.348L121.908 103.008C122.32 102.766 122.586 102.331 122.586 101.847V83.1428C122.586 82.6589 122.32 82.2234 121.908 81.9814L116.317 78.7632C116.462 78.4003 116.486 77.9889 116.462 77.6018C116.462 77.0453 116.462 76.4161 116.462 75.7628L125.225 80.8199ZM104.988 69.1571L112.202 73.319C112.298 74.5046 112.54 75.666 112.952 76.8275L105.666 72.6415C105.303 72.4237 104.891 72.4479 104.504 72.5931C104.359 71.7704 104.286 70.9235 104.238 70.0766C104.286 69.883 104.359 69.6895 104.407 69.4959L104.988 69.1571ZM104.94 104.75C108.45 102.573 112.008 100.516 115.639 98.5803C115.711 96.5478 115.833 94.5153 116.002 92.507C116.075 91.3697 116.22 90.2325 116.341 89.0952C116.462 87.958 116.607 86.8207 116.801 85.6835C116.994 86.8207 117.115 87.958 117.261 89.0952C117.406 90.2325 117.527 91.3697 117.6 92.507C117.793 94.7814 117.938 97.0559 118.011 99.3304C118.035 99.7418 117.817 100.129 117.479 100.322L117.406 100.371C113.557 102.791 109.612 105.065 105.593 107.194L105.521 107.243C105.158 107.436 104.722 107.412 104.383 107.194C102.447 105.985 100.558 104.75 98.6703 103.444C97.7263 102.815 96.8065 102.137 95.8866 101.436C94.9668 100.758 94.047 100.081 93.1513 99.3304C94.2406 99.7176 95.2815 100.177 96.3223 100.637C97.3874 101.073 98.4283 101.532 99.4449 102.04C101.333 102.887 103.148 103.807 104.94 104.75ZM127.403 36.419C127.185 36.1528 126.967 35.9108 126.725 35.6689C126.483 35.4269 126.241 35.2091 125.975 34.9914C125.539 34.6284 125.079 34.2897 124.571 33.9751C124.45 33.9025 124.329 33.8541 124.208 33.7815C124.813 33.2734 125.418 32.7653 126.023 32.2813C128.517 30.2246 130.961 28.1195 133.43 25.9902L134.205 25.3127C135.052 24.5868 135.899 23.8609 136.747 23.1108C138.005 22.0461 139.288 20.9815 140.595 19.9652C141.418 19.3119 142.266 18.6828 143.137 18.0779C146.695 15.5614 150.472 13.4563 154.756 12.3432C158.677 11.3028 161.945 11.5206 163.277 12.8756C164.172 13.7951 164.317 15.3436 163.688 17.4971C163.156 19.3119 161.897 21.1025 159.96 22.8204C157.419 25.0707 154.345 26.7403 151.682 28.0711C146.284 30.7569 140.257 33.1766 132.728 35.6931C131.905 35.9592 131.082 36.2012 130.259 36.4674C129.533 36.7093 128.807 36.9271 128.057 37.1691C127.815 36.9271 127.597 36.6609 127.403 36.419ZM114.913 56.1151C115.76 56.4539 116.704 56.72 117.672 56.8652C117.624 56.9136 117.575 56.9136 117.527 56.962C116.849 57.4459 116.244 58.075 115.687 58.7283C114.308 60.3495 113.267 62.3095 112.662 64.221C112.371 65.1163 112.298 66.3261 113.121 66.7617C113.146 66.7859 113.17 66.7617 113.218 66.7859C112.71 67.1004 112.444 67.7537 112.371 68.3828C112.298 69.012 112.25 69.6411 112.202 70.246L105.666 66.4471C105.472 66.3261 105.254 66.2777 105.037 66.2777C105.23 65.2131 105.496 64.1726 106.005 63.2289C106.319 62.5998 106.319 61.7529 106.053 61.0512C106.319 61.148 106.562 61.2206 106.852 61.2206C107.288 61.1964 107.699 60.9302 108.062 60.6883C109.636 59.6478 111.258 58.6316 112.807 57.5669C113.339 57.204 113.896 56.8652 114.404 56.4781C114.525 56.3813 114.646 56.2845 114.743 56.1877C114.792 56.1635 114.84 56.1393 114.913 56.1151Z" fill="#2B0910"/>
<path d="M118.35 117.429H134.713H137.4H140.087L127.234 110.001C126.822 109.759 126.314 109.759 125.902 110.001L113.049 117.429H115.736H118.35Z" fill="#2B0910"/>
<path d="M75.2387 117.429H91.602H94.2889H96.9758L84.1223 110.001C83.7108 109.759 83.2025 109.759 82.791 110.001L69.9375 117.429H72.6244H75.2387Z" fill="#2B0910"/>
<path d="M32.1034 117.429H48.4668H51.1537H53.8405L40.9871 110.001C40.5756 109.759 40.0672 109.759 39.6557 110.001L26.8022 117.429H29.4891H32.1034Z" fill="#2B0910"/>
<path d="M164.777 74.9642C165.407 73.1011 165.818 71.2621 165.939 69.3506C163.495 71.2863 160.783 72.4236 157.854 73.3672C160.106 74.2141 162.405 74.7948 164.777 74.9642Z" fill="#2B0910"/>
<path d="M165.842 66.035C165.697 64.7526 165.407 63.4701 165.044 62.2119C164.584 62.7442 163.954 63.2282 163.228 63.6879C159.815 65.8414 155.506 68.9386 151.246 69.9065C151.367 69.9791 151.464 70.0758 151.585 70.1484C153.134 71.1405 154.756 72.0116 156.426 72.7617C160.009 71.2615 163.422 68.9628 165.842 66.035Z" fill="#2B0910"/>
<path d="M159.113 51.9045C157.951 50.5978 156.692 49.388 155.337 48.2266C152.19 54.5903 147.422 58.1472 141.273 61.5831C141.176 61.6315 141.08 61.6799 140.958 61.7525C142.193 62.8898 143.452 63.9786 144.735 65.0433C150.81 63.7851 157.903 58.1956 159.113 51.9045Z" fill="#2B0910"/>
<path d="M152.069 45.6378C150.641 44.5973 149.164 43.6294 147.664 42.71C147.325 44.9119 145.751 46.896 144.565 48.6866C142.266 52.1225 138.368 54.3728 134.423 55.4616C134.374 55.4616 134.35 55.4858 134.302 55.4858C134.35 55.5342 134.374 55.5826 134.447 55.631C134.955 56.1149 135.464 56.5989 135.972 57.0586C137.279 58.2926 138.61 59.5509 139.942 60.7849C145.727 58.6314 151.512 51.8805 152.069 45.6378Z" fill="#2B0910"/>
<path d="M163.736 58.7039C163.349 57.8813 162.913 57.0586 162.429 56.2843C162.211 55.9455 161.993 55.631 161.776 55.3164C161.534 55.6794 161.243 56.0181 160.953 56.3085C157.08 60.3493 152.021 63.5675 146.768 65.5758C146.453 65.6968 146.138 65.7936 145.824 65.8904C147.131 66.9308 148.462 67.9229 149.818 68.8908C155.337 67.0034 160.953 64.0514 163.736 58.7039Z" fill="#2B0910"/>
<path d="M101.817 42.3228C101.696 42.2986 101.575 42.2744 101.454 42.2744C100.68 42.2744 99.905 42.8793 99.2757 43.9924C98.6947 45.0086 98.38 46.2669 98.2832 47.9606C98.2348 48.7349 98.2348 49.5818 98.5495 50.3077C98.8157 50.9368 99.4209 51.5902 100.195 51.6385C101.43 51.7111 102.301 50.2835 102.689 49.4366C103.391 47.9364 103.681 46.775 103.657 45.662C103.633 43.9682 102.882 42.6132 101.817 42.3228ZM101.769 45.2748C101.72 45.5168 101.575 45.7829 101.43 46.0491C100.994 46.7024 100.317 47.1622 99.784 46.2911C99.2999 45.4926 99.7356 44.2344 100.559 43.8472C100.801 43.7262 101.067 43.6778 101.309 43.7746C101.575 43.8714 101.745 44.1376 101.817 44.4279C101.866 44.7183 101.817 45.0086 101.769 45.2748Z" fill="#2B0910"/>
<path d="M19.5647 65.6C14.312 63.5917 9.25289 60.3735 5.3799 56.3327C5.08943 56.0181 4.79895 55.6794 4.55689 55.3164C4.33904 55.6552 4.09697 55.9697 3.90332 56.2843C3.4192 57.0586 2.98349 57.8813 2.59619 58.7039C5.35569 64.0272 10.9957 67.0034 16.5147 68.8908C17.8703 67.9471 19.2258 66.955 20.5088 65.8904C20.1941 65.8178 19.8794 65.721 19.5647 65.6Z" fill="#2B0910"/>
<path d="M26.3905 60.8337C27.7218 59.5997 29.0532 58.3415 30.3603 57.1074C30.8686 56.6235 31.3769 56.1396 31.8853 55.6798C31.9337 55.6314 31.9579 55.583 32.0305 55.5347C31.9821 55.5347 31.9579 55.5105 31.9095 55.5105C27.9639 54.3974 24.0667 52.1471 21.7671 48.7354C20.5568 46.9448 19.0076 44.9607 18.6687 42.7588C17.1679 43.6783 15.6913 44.6461 14.2632 45.6866C14.7957 51.881 20.581 58.6318 26.3905 60.8337Z" fill="#2B0910"/>
<path d="M7.19531 51.9047C8.40562 58.1958 15.498 63.7853 21.5496 65.0677C22.8325 64.003 24.0912 62.89 25.3257 61.7769C25.2289 61.7285 25.1079 61.6802 25.0111 61.6076C18.8627 58.1474 14.0699 54.6147 10.9473 48.251C9.64014 49.3882 8.35721 50.5981 7.19531 51.9047Z" fill="#2B0910"/>
<path d="M1.28855 62.2119C0.925457 63.4701 0.634983 64.7284 0.489746 66.035C2.88616 68.9628 6.32343 71.2857 9.90595 72.7617C11.5762 72.0116 13.198 71.1405 14.7472 70.1484C14.8682 70.0758 14.965 69.9791 15.0861 69.9065C10.8258 68.9386 6.54129 65.8414 3.10401 63.6879C2.35362 63.2282 1.74847 62.7442 1.28855 62.2119Z" fill="#2B0910"/>
<path d="M1.53083 74.9642C3.90303 74.7706 6.22683 74.2141 8.42959 73.3672C5.52485 72.4236 2.78955 71.2863 0.344727 69.3506C0.489964 71.2621 0.901469 73.1011 1.53083 74.9642Z" fill="#2B0910"/>
<path d="M66.1371 51.6639C66.9117 51.6155 67.5168 50.9622 67.7831 50.3331C68.0978 49.6072 68.0978 48.7845 68.0494 47.986C67.9526 46.2923 67.6379 45.034 67.0569 44.0178C66.4276 42.9047 65.653 42.2998 64.8784 42.2998C64.7573 42.2998 64.6363 42.324 64.5153 42.3482C63.4502 42.6144 62.6998 43.9936 62.6756 45.6873C62.6514 46.8004 62.9661 47.9618 63.6439 49.462C64.0554 50.3089 64.9026 51.7365 66.1371 51.6639ZM64.5153 44.4291C64.5879 44.1388 64.7573 43.8726 65.0236 43.7758C65.2657 43.679 65.5561 43.7274 65.774 43.8484C66.597 44.2355 67.0327 45.4938 66.5486 46.2923C66.0161 47.1875 65.3383 46.7036 64.9026 46.0503C64.7331 45.8083 64.6121 45.518 64.5637 45.276C64.4911 45.0098 64.4427 44.7195 64.5153 44.4291Z" fill="#2B0910"/>
</svg>
