<svg width="1920" height="234" viewBox="0 0 1920 234" fill="none" xmlns="http://www.w3.org/2000/svg">
<path d="M977.187 3.58747C974.573 1.38868 970.86 0 966.872 0H15.5866C11.5982 0 7.88497 1.38868 5.27193 3.58747C2.52136 5.90198 0.733474 9.02662 0.733474 12.4984C0.733474 14.1186 1.14607 15.7387 1.83371 17.2431C-2.29214 43.6285 1.83371 68.0466 1.83371 94.7792C2.79641 99.6397 4.30923 104.963 9.12273 107.856C15.8616 111.791 25.7637 108.203 30.4397 102.533C35.1156 96.8624 36.2159 89.6874 38.2788 82.9753C40.4792 75.8003 43.9175 68.8568 49.006 62.839C51.4815 60.0616 54.5072 57.2842 58.633 56.7056C65.5094 55.7798 71.1481 61.2189 73.7612 66.658C85.4511 90.7289 67.1598 119.313 78.1621 143.5C82.8381 153.915 96.866 163.057 108.693 158.081C119.696 153.452 120.383 140.722 119.696 130.423C118.733 118.619 117.908 106.699 116.945 94.895C116.12 84.2482 118.458 70.014 130.973 68.2782C141.7 66.7737 149.539 76.3789 154.353 84.7112C158.204 91.3075 160.679 101.144 172.507 98.3668C177.183 97.3253 181.721 93.9692 186.26 95.4737C191.623 97.3253 190.936 103.69 190.385 108.551C188.322 126.372 206.339 151.716 230.956 148.36C237.145 147.55 243.059 144.657 249.385 144.426C279.229 143.5 271.94 189.559 297.658 202.52C319.112 213.282 343.317 193.725 358.445 176.945C373.574 160.164 402.179 143.153 420.196 157.618C425.147 161.669 428.035 167.455 433.811 170.695C445.363 177.176 460.904 169.422 469.568 160.28C478.233 151.138 485.247 139.565 498.312 135.515C523.205 127.877 545.072 153.105 549.198 175.093C551.26 186.434 550.985 197.891 553.323 209.116C554.561 214.903 556.487 220.805 560.612 225.665C564.738 230.525 571.34 234.113 578.354 233.997C599.258 233.303 604.071 197.196 606.96 184.698C609.848 171.621 620.162 151.022 634.19 143.731C640.517 140.491 649.593 140.144 654.544 144.773C666.922 156.345 666.647 183.078 693.878 179.838C716.432 177.176 724.546 146.624 747.239 147.203C764.017 147.55 776.257 165.835 792.623 163.057C805.001 160.859 809.814 148.36 811.877 137.829C815.453 120.702 813.527 101.723 818.754 85.2897C819.854 81.818 822.742 77.7676 826.868 78.5777C831.819 79.6193 831.681 86.6785 836.632 88.0672C840.071 88.993 843.371 86.3313 844.746 83.5539C845.984 80.7765 846.259 77.5361 848.047 74.9902C858.499 60.4087 868.539 106.468 869.502 110.055C870.739 115.494 868.951 125.794 874.178 129.96C883.254 137.366 895.357 127.414 898.933 119.545C902.784 111.212 902.921 101.723 908.285 94.0849C909.385 92.5805 910.623 91.1918 912.548 90.6132C916.399 89.4559 920.112 92.2334 922.45 95.1265C934.14 109.361 933.452 128.108 941.016 144.194C942.804 148.129 945.83 152.295 950.644 152.989C976.224 156.924 981.175 36.2221 981.037 20.252C981.037 19.3262 980.9 18.4004 980.9 17.3588C981.587 15.8544 982 14.3499 982 12.6141C981.725 8.91083 979.937 5.78625 977.187 3.58747Z" fill="#2B0910"/>
<path d="M1915.18 3.58747C1912.57 1.38868 1908.85 0 1904.86 0H952.602C948.61 0 944.893 1.38868 942.277 3.58747C939.524 5.90198 937.734 9.02662 937.734 12.4984C937.734 14.1186 938.147 15.7387 938.836 17.2431C934.706 43.6285 938.836 68.0466 938.836 94.7792C939.799 99.6397 941.314 104.963 946.132 107.856C952.878 111.791 962.79 108.203 967.471 102.533C972.151 96.8624 973.253 89.6874 975.318 82.9753C977.52 75.8003 980.962 68.8568 986.056 62.839C988.534 60.0616 991.563 57.2842 995.693 56.7056C1002.58 55.7798 1008.22 61.2189 1010.84 66.658C1022.54 90.7289 1004.23 119.313 1015.24 143.5C1019.92 153.915 1033.96 163.057 1045.8 158.081C1056.82 153.452 1057.51 140.722 1056.82 130.423C1055.85 118.619 1055.03 106.699 1054.06 94.895C1053.24 84.2482 1055.58 70.014 1068.11 68.2782C1078.84 66.7737 1086.69 76.3789 1091.51 84.7112C1095.36 91.3075 1097.84 101.144 1109.68 98.3668C1114.36 97.3253 1118.91 93.9692 1123.45 95.4737C1128.82 97.3253 1128.13 103.69 1127.58 108.551C1125.51 126.372 1143.55 151.716 1168.19 148.36C1174.39 147.55 1180.31 144.657 1186.64 144.426C1216.51 143.5 1209.22 189.559 1234.96 202.52C1256.44 213.282 1280.67 193.725 1295.81 176.945C1310.95 160.164 1339.59 143.153 1357.62 157.618C1362.58 161.669 1365.47 167.455 1371.25 170.695C1382.82 177.176 1398.37 169.422 1407.05 160.28C1415.72 151.138 1422.74 139.565 1435.82 135.515C1460.74 127.877 1482.63 153.105 1486.76 175.093C1488.82 186.434 1488.55 197.891 1490.89 209.116C1492.13 214.903 1494.05 220.805 1498.18 225.665C1502.31 230.525 1508.92 234.113 1515.94 233.997C1536.87 233.303 1541.69 197.196 1544.58 184.698C1547.47 171.621 1557.79 151.022 1571.84 143.731C1578.17 140.491 1587.25 140.144 1592.21 144.773C1604.6 156.345 1604.33 183.078 1631.58 179.838C1654.16 177.176 1662.28 146.624 1685 147.203C1701.8 147.55 1714.05 165.835 1730.43 163.057C1742.82 160.859 1747.64 148.36 1749.7 137.829C1753.28 120.702 1751.36 101.723 1756.59 85.2897C1757.69 81.818 1760.58 77.7676 1764.71 78.5777C1769.67 79.6193 1769.53 86.6785 1774.48 88.0672C1777.93 88.993 1781.23 86.3313 1782.61 83.5539C1783.85 80.7765 1784.12 77.5361 1785.91 74.9902C1796.37 60.4087 1806.42 106.468 1807.39 110.055C1808.63 115.494 1806.84 125.794 1812.07 129.96C1821.15 137.366 1833.27 127.414 1836.85 119.545C1840.7 111.212 1840.84 101.723 1846.21 94.0849C1847.31 92.5805 1848.55 91.1918 1850.48 90.6132C1854.33 89.4559 1858.05 92.2334 1860.39 95.1265C1872.09 109.361 1871.4 128.108 1878.97 144.194C1880.76 148.129 1883.79 152.295 1888.61 152.989C1914.22 156.924 1919.17 36.2221 1919.04 20.252C1919.04 19.3262 1918.9 18.4004 1918.9 17.3588C1919.59 15.8544 1920 14.3499 1920 12.6141C1919.72 8.91083 1917.93 5.78625 1915.18 3.58747Z" fill="#2B0910"/>
</svg>
