<svg width="324" height="366" viewBox="0 0 324 366" fill="none" xmlns="http://www.w3.org/2000/svg">
<g filter="url(#filter0_i_61_23)">
<path d="M172 363.227C165.812 366.799 158.188 366.799 152 363.227L10.9193 281.774C4.73127 278.201 0.919303 271.598 0.919302 264.453L0.919288 101.547C0.919288 94.4017 4.73126 87.7992 10.9193 84.2265L152 2.7735C158.188 -0.799162 165.812 -0.799168 172 2.77349L313.081 84.2265C319.269 87.7991 323.081 94.4017 323.081 101.547L323.081 264.453C323.081 271.598 319.269 278.201 313.081 281.773L172 363.227Z" fill="url(#paint0_linear_61_23)"/>
</g>
<path d="M159.5 350.236L18.4193 268.783C16.8723 267.89 15.9193 266.239 15.9193 264.453L15.9193 101.547C15.9193 99.7607 16.8723 98.11 18.4193 97.2169L159.5 15.7639C161.047 14.8707 162.953 14.8707 164.5 15.7639L305.581 97.2169C307.128 98.11 308.081 99.7607 308.081 101.547L308.081 264.453C308.081 266.239 307.128 267.89 305.581 268.783L164.5 350.236C162.953 351.129 161.047 351.129 159.5 350.236Z" stroke="url(#paint1_linear_61_23)" stroke-width="30"/>
<defs>
<filter id="filter0_i_61_23" x="0.919189" y="0.0942383" width="345.162" height="388.812" filterUnits="userSpaceOnUse" color-interpolation-filters="sRGB">
<feFlood flood-opacity="0" result="BackgroundImageFix"/>
<feBlend mode="normal" in="SourceGraphic" in2="BackgroundImageFix" result="shape"/>
<feColorMatrix in="SourceAlpha" type="matrix" values="0 0 0 0 0 0 0 0 0 0 0 0 0 0 0 0 0 0 127 0" result="hardAlpha"/>
<feOffset dx="51" dy="30"/>
<feGaussianBlur stdDeviation="11.5"/>
<feComposite in2="hardAlpha" operator="arithmetic" k2="-1" k3="1"/>
<feColorMatrix type="matrix" values="0 0 0 0 0.917647 0 0 0 0 0.447059 0 0 0 0 0.0666667 0 0 0 0.5 0"/>
<feBlend mode="normal" in2="shape" result="effect1_innerShadow_61_23"/>
</filter>
<linearGradient id="paint0_linear_61_23" x1="22.4279" y1="274.126" x2="307.916" y2="100.526" gradientUnits="userSpaceOnUse">
<stop stop-color="#FBA408"/>
<stop offset="1" stop-color="#FDC800"/>
</linearGradient>
<linearGradient id="paint1_linear_61_23" x1="-2.37203" y1="284.219" x2="321.758" y2="95.9117" gradientUnits="userSpaceOnUse">
<stop stop-color="white"/>
<stop offset="0.364583" stop-color="#EBEBEB"/>
<stop offset="1" stop-color="white"/>
</linearGradient>
</defs>
</svg>
