<?xml version="1.0" encoding="utf-8"?>
<!-- Generator: Adobe Illustrator 24.0.0, SVG Export Plug-In . SVG Version: 6.00 Build 0)  -->
<svg version="1.1" id="Layer_1" xmlns="http://www.w3.org/2000/svg" xmlns:xlink="http://www.w3.org/1999/xlink" x="0px"
	 y="0px" viewBox="0 0 1920 2161" style="enable-background:new 0 0 1920 2161;" xml:space="preserve">
	<style type="text/css">
		.path2{fill:#2B0910;}
	</style>
	<path class="path2" d="M425.38,1276.42c0,5.01,3.72,9.06,8.31,9.06c4.59,0,8.31-4.06,8.31-9.06c0-6.42-8.31-17.99-8.31-17.99
		S425.38,1269.92,425.38,1276.42z M431.33,1281.97c-2.63-1.02-3.51-4.12-3.08-6.89c0.32-2.05,1.26-4.07,2.39-5.4
		c-0.38,0.45-0.41,1.99-0.49,2.58c-0.12,0.92-0.19,1.85-0.17,2.78c0.04,1.82,0.45,3.59,1.39,5.12c0.47,0.76,1.09,1.43,1.85,1.8
		C432.64,1282.25,431.95,1282.21,431.33,1281.97z"/>
	<path class="path2" d="M417.24,1296.22c0,2.82,2.1,5.11,4.68,5.11c2.59,0,4.68-2.29,4.68-5.11c0-3.61-4.68-10.14-4.68-10.14
		S417.24,1292.55,417.24,1296.22z M420.6,1299.34c-1.48-0.58-1.98-2.32-1.73-3.88c0.18-1.16,0.71-2.29,1.35-3.04
		c-0.21,0.25-0.23,1.12-0.28,1.45c-0.07,0.52-0.11,1.04-0.09,1.57c0.02,1.03,0.25,2.02,0.78,2.88c0.26,0.43,0.61,0.8,1.05,1.01
		C421.34,1299.5,420.94,1299.47,420.6,1299.34z"/>
	<path class="path2" d="M364.11,844.75v15.61l13.55,7.82l13.55-7.82v-15.61l-13.55-7.82L364.11,844.75z M385.66,856.81
		c0.01,0.21-0.1,0.4-0.27,0.5l-0.03,0.02c-2.42,1.5-4.89,2.93-7.4,4.28l-0.03,0.02c-0.19,0.1-0.4,0.09-0.57-0.02
		c-2.43-1.49-4.81-3.07-7.1-4.8c2.53,1.08,4.98,2.3,7.38,3.59c2.24-1.38,4.52-2.7,6.84-3.95c0.08-2.73,0.25-5.46,0.58-8.19
		C385.41,851.11,385.58,853.96,385.66,856.81z"/>
	<path class="path2" d="M375.61,833.34v-15.61l-13.55-7.82l-13.55,7.82v15.65l13.52,7.81l0.03,0.02l13.55-7.82V833.34z M361.76,834.62
		c-2.43-1.49-4.81-3.07-7.1-4.8c2.53,1.08,4.98,2.3,7.38,3.59c2.24-1.38,4.52-2.7,6.83-3.95c0.08-2.73,0.25-5.46,0.58-8.19
		c0.35,2.85,0.52,5.69,0.6,8.54c0.01,0.21-0.1,0.4-0.27,0.5l-0.03,0.02c-2.42,1.5-4.89,2.93-7.4,4.28l-0.03,0.02
		C362.14,834.74,361.92,834.72,361.76,834.62z"/>
	<path class="path2" d="M379.71,817.73v15.61v0.03l13.55,7.82l0.03-0.02l13.52-7.81v-15.65l-13.55-7.82L379.71,817.73z M401.26,829.82
		c0.01,0.21-0.1,0.4-0.27,0.5l-0.03,0.02c-2.42,1.5-4.89,2.93-7.4,4.28l-0.03,0.02c-0.19,0.1-0.4,0.09-0.57-0.02
		c-2.43-1.49-4.81-3.07-7.1-4.8c2.53,1.08,4.98,2.3,7.38,3.59c2.24-1.38,4.52-2.7,6.83-3.95c0.08-2.73,0.25-5.46,0.58-8.19
		C401.01,824.13,401.18,826.98,401.26,829.82z"/>
	<path class="path2" d="M410.9,817.73v15.65l13.55,7.82l13.55-7.82v-15.65l-13.55-7.82L410.9,817.73z M432.46,829.82
		c0.01,0.21-0.1,0.4-0.27,0.5l-0.03,0.02c-2.42,1.5-4.89,2.93-7.4,4.28l-0.03,0.02c-0.19,0.1-0.4,0.09-0.57-0.02
		c-2.43-1.49-4.81-3.07-7.1-4.8c2.53,1.08,4.98,2.3,7.38,3.59c2.24-1.38,4.52-2.7,6.83-3.95c0.08-2.73,0.25-5.46,0.58-8.18v0
		C432.21,824.13,432.38,826.98,432.46,829.82z"/>
	<g>
		<path class="path2" d="M1450.14,1821.07l-10-5.78c-0.26-0.15-0.57-0.15-0.83,0l-10,5.78c-0.26,0.15-0.41,0.42-0.41,0.71v11.55
			c0,0.3,0.16,0.57,0.41,0.71l10,5.77c0.13,0.07,0.27,0.11,0.41,0.11s0.29-0.04,0.41-0.11l10-5.77c0.26-0.15,0.41-0.42,0.41-0.71
			v-11.55C1450.55,1821.49,1450.4,1821.22,1450.14,1821.07z M1440.05,1836.64c-0.23,0.12-0.49,0.1-0.7-0.03
			c-2.38-1.49-4.7-3.08-6.92-4.85c2.5,0.98,4.9,2.12,7.25,3.36c2.16-1.35,4.36-2.62,6.61-3.81c0.11-2.65,0.31-5.31,0.71-7.96
			c0.42,2.81,0.64,5.61,0.74,8.42c0.01,0.26-0.12,0.48-0.32,0.61l-0.05,0.03c-2.38,1.5-4.8,2.9-7.29,4.21L1440.05,1836.64z"/>
		<path class="path2" d="M1423.52,1834.05c0.26-0.15,0.41-0.42,0.41-0.71v-11.55c0-0.3-0.16-0.57-0.41-0.71l-10-5.78
			c-0.26-0.15-0.57-0.15-0.83,0l-10,5.78c-0.26,0.15-0.41,0.42-0.41,0.71v11.55c0,0.3,0.16,0.57,0.41,0.71l10,5.77
			c0.13,0.07,0.27,0.11,0.41,0.11s0.29-0.04,0.41-0.11L1423.52,1834.05z M1420.4,1823.35c0.42,2.81,0.64,5.61,0.74,8.42
			c0.01,0.26-0.12,0.48-0.32,0.61l-0.05,0.03c-2.38,1.5-4.8,2.9-7.29,4.21l-0.05,0.03c-0.23,0.12-0.49,0.1-0.7-0.03
			c-2.38-1.49-4.7-3.08-6.92-4.85c2.5,0.98,4.9,2.12,7.25,3.36c2.16-1.35,4.36-2.62,6.61-3.81
			C1419.79,1828.66,1420,1826,1420.4,1823.35z"/>
		<path class="path2" d="M1386.91,1839.82l10-5.77c0.26-0.15,0.41-0.42,0.41-0.71v-11.55c0-0.3-0.16-0.57-0.41-0.71l-10-5.78
			c-0.26-0.15-0.57-0.15-0.83,0l-10,5.78c-0.26,0.15-0.41,0.42-0.41,0.71v11.55c0,0.3,0.16,0.57,0.41,0.71l10,5.77
			c0.13,0.07,0.27,0.11,0.41,0.11S1386.78,1839.9,1386.91,1839.82z M1393.78,1823.35c0.42,2.81,0.64,5.61,0.74,8.42
			c0.01,0.26-0.12,0.48-0.32,0.61l-0.05,0.03c-2.38,1.5-4.8,2.9-7.29,4.21l-0.05,0.03c-0.23,0.12-0.49,0.1-0.7-0.03
			c-2.38-1.49-4.7-3.08-6.92-4.85c2.5,0.98,4.9,2.12,7.25,3.36c2.16-1.35,4.36-2.62,6.61-3.81
			C1393.17,1828.66,1393.38,1826,1393.78,1823.35z"/>
		<path class="path2" d="M1416.02,1810.97l10,5.77c0.13,0.07,0.27,0.11,0.41,0.11c0.14,0,0.29-0.04,0.41-0.11l10-5.77
			c0.26-0.15,0.41-0.42,0.41-0.71v-11.55c0-0.3-0.16-0.57-0.41-0.71l-10-5.77c-0.26-0.15-0.57-0.15-0.82,0l-10,5.77
			c-0.26,0.15-0.41,0.42-0.41,0.71v11.55C1415.6,1810.55,1415.76,1810.82,1416.02,1810.97z M1434.14,1809.3l-0.05,0.03
			c-2.38,1.5-4.8,2.9-7.29,4.21l-0.05,0.03c-0.23,0.12-0.49,0.1-0.7-0.03c-2.38-1.49-4.7-3.08-6.92-4.85c2.5,0.98,4.9,2.12,7.25,3.36
			c2.16-1.35,4.36-2.62,6.61-3.81c0.11-2.65,0.31-5.31,0.71-7.96c0.42,2.8,0.64,5.61,0.74,8.41
			C1434.47,1808.94,1434.34,1809.17,1434.14,1809.3z"/>
		<path class="path2" d="M1389.4,1810.97l10,5.77c0.13,0.07,0.27,0.11,0.41,0.11s0.29-0.04,0.41-0.11l10-5.77
			c0.26-0.15,0.41-0.42,0.41-0.71v-11.55c0-0.3-0.16-0.57-0.41-0.71l-10-5.78c-0.26-0.15-0.57-0.15-0.83,0l-10,5.78
			c-0.26,0.15-0.41,0.42-0.41,0.71v11.55C1388.99,1810.55,1389.14,1810.83,1389.4,1810.97z M1407.1,1800.27
			c0.42,2.8,0.64,5.61,0.74,8.42c0.01,0.26-0.12,0.48-0.32,0.61l-0.05,0.03c-2.38,1.5-4.8,2.9-7.29,4.21l-0.05,0.03
			c-0.23,0.12-0.49,0.1-0.7-0.03c-2.38-1.49-4.7-3.08-6.92-4.85c2.5,0.98,4.9,2.12,7.25,3.36c2.16-1.35,4.36-2.62,6.61-3.81
			C1406.5,1805.58,1406.7,1802.93,1407.1,1800.27z"/>
		<path class="path2" d="M1426.84,1862.87l10-5.78c0.26-0.15,0.41-0.42,0.41-0.71v-11.55c0-0.3-0.16-0.57-0.41-0.71l-10-5.77
			c-0.26-0.15-0.57-0.15-0.83,0l-10,5.77c-0.26,0.15-0.41,0.42-0.41,0.71v11.55c0,0.3,0.16,0.57,0.41,0.71l10,5.78
			c0.13,0.07,0.27,0.11,0.41,0.11C1426.57,1862.98,1426.72,1862.95,1426.84,1862.87z M1433.72,1846.4c0.42,2.81,0.64,5.61,0.74,8.42
			c0.01,0.26-0.12,0.48-0.32,0.61l-0.05,0.03c-2.38,1.5-4.8,2.9-7.29,4.21l-0.05,0.03c-0.23,0.12-0.49,0.1-0.7-0.03
			c-2.38-1.49-4.7-3.08-6.92-4.85c2.5,0.98,4.9,2.13,7.25,3.36c2.16-1.35,4.36-2.62,6.61-3.81
			C1433.11,1851.71,1433.32,1849.05,1433.72,1846.4z"/>
		<path class="path2" d="M1386.1,1859l13.31,7.68c0.13,0.07,0.27,0.11,0.41,0.11s0.29-0.04,0.41-0.11l12.89-7.45l12.9,7.45
			c0.13,0.07,0.27,0.11,0.41,0.11c0.14,0,0.29-0.04,0.41-0.11l13.31-7.68c0.26-0.15,0.41-0.42,0.41-0.71v-14.9l12.88-7.44
			c0.26-0.15,0.41-0.42,0.41-0.71v-15.37c0-0.3-0.16-0.57-0.41-0.71l-12.88-7.44v-14.93c0-0.3-0.16-0.57-0.41-0.71l-13.31-7.68
			c-0.26-0.15-0.57-0.15-0.83,0l-12.9,7.44l-12.89-7.44c-0.26-0.15-0.57-0.15-0.83,0l-13.31,7.68c-0.26,0.15-0.41,0.42-0.41,0.71
			v14.91l-12.91,7.45c-0.26,0.15-0.41,0.42-0.41,0.71v15.37c0,0.3,0.16,0.57,0.41,0.71l12.91,7.45v14.88
			C1385.68,1858.58,1385.84,1858.86,1386.1,1859z M1412.3,1857.81l-12.48,7.21l-12.48-7.21v-14.41l12.48-7.2l0.01,0l12.48,7.21v0.01
			V1857.81z M1439.73,1841.97l-12.49-7.21v-14.4l12.48-7.2l12.48,7.2v14.41L1439.73,1841.97z M1400.63,1834.76v-14.4l12.48-7.2
			l12.48,7.2v14.41l-12.48,7.2L1400.63,1834.76z M1413.95,1843.4l12.48-7.2l0.01,0l12.48,7.21v0.01v14.4l-12.48,7.21l-12.48-7.21
			V1843.4z M1438.91,1797.27v14.41l-12.48,7.21l-12.48-7.21v-14.41l12.48-7.2L1438.91,1797.27z M1412.3,1797.27v14.41l-12.48,7.21
			l-12.48-7.21v-14.41l12.48-7.2L1412.3,1797.27z M1374.01,1820.35l12.48-7.2l12.48,7.2v14.41l-12.48,7.21l-12.48-7.21V1820.35z"/>
		<path class="path2" d="M1410.23,1844.12l-10-5.77c-0.26-0.15-0.57-0.15-0.83,0l-10,5.77c-0.26,0.15-0.41,0.42-0.41,0.71v11.55
			c0,0.3,0.16,0.57,0.41,0.71l10,5.78c0.13,0.07,0.27,0.11,0.41,0.11s0.29-0.04,0.41-0.11l10-5.78c0.26-0.15,0.41-0.42,0.41-0.71
			v-11.55C1410.64,1844.54,1410.49,1844.26,1410.23,1844.12z M1400.14,1859.69c-0.23,0.12-0.49,0.1-0.7-0.03
			c-2.38-1.49-4.7-3.08-6.92-4.85c2.5,0.98,4.9,2.13,7.25,3.36c2.16-1.35,4.36-2.62,6.61-3.81c0.11-2.65,0.31-5.31,0.71-7.96
			c0.42,2.81,0.64,5.61,0.74,8.42c0.01,0.26-0.12,0.48-0.32,0.61l-0.05,0.03c-2.38,1.5-4.8,2.9-7.29,4.21L1400.14,1859.69z"/>
	</g>
	<g>
		<path class="path2" d="M790.43,1391.85c-0.73-0.82-1.53-1.59-2.37-2.32c-1.98,4.02-4.99,6.26-8.87,8.43
			c-0.06,0.03-0.13,0.07-0.19,0.1c0.78,0.71,1.58,1.4,2.39,2.08C785.2,1399.34,789.68,1395.81,790.43,1391.85z"/>
		<path class="path2" d="M794.01,1406.4c0.4-1.17,0.66-2.34,0.73-3.54c-1.53,1.22-3.26,1.94-5.09,2.53
			C791.05,1405.92,792.51,1406.28,794.01,1406.4z"/>
		<path class="path2" d="M793.34,1396.14c-0.25-0.52-0.52-1.03-0.83-1.52c-0.13-0.21-0.28-0.41-0.42-0.62
			c-0.15,0.22-0.33,0.44-0.52,0.63c-2.44,2.55-5.63,4.58-8.94,5.85c-0.19,0.07-0.4,0.14-0.6,0.2c0.82,0.66,1.66,1.29,2.52,1.89
			C788.04,1401.37,791.6,1399.5,793.34,1396.14z"/>
		<path class="path2" d="M794.67,1400.76c-0.1-0.81-0.27-1.62-0.5-2.4c-0.3,0.33-0.68,0.64-1.14,0.93c-2.16,1.36-4.87,3.32-7.55,3.93
			c0.07,0.05,0.14,0.1,0.21,0.15c0.97,0.62,2,1.18,3.05,1.64C790.99,1404.06,793.16,1402.61,794.67,1400.76z"/>
		<path class="path2" d="M774.85,1394.1c-0.03,0.01-0.05,0.01-0.08,0.02c0.03,0.03,0.05,0.07,0.09,0.1c0.32,0.3,0.64,0.6,0.96,0.91
			c0.83,0.78,1.66,1.57,2.51,2.35c3.66-1.38,7.31-5.65,7.65-9.57c-0.9-0.65-1.84-1.27-2.78-1.85c-0.21,1.39-1.2,2.64-1.96,3.77
			C779.79,1391.98,777.34,1393.4,774.85,1394.1z"/>
		<path class="path2" d="M780.72,1407.08c-0.56-0.2-1.17-0.42-1.69-0.74c-0.01-0.38-0.32-0.69-0.58-0.98c-1.05-1.2-1.2-2.91-1.79-4.4
			c-0.18-0.45-0.42-0.91-0.85-1.13c-0.21-0.11-0.4-0.16-0.56-0.17c0.15-0.16,0.27-0.34,0.33-0.56c0.18-0.66-0.12-1.33-0.36-1.97
			c-0.15-0.41-0.42-1.6-0.76-2.94c-0.05-0.2-0.1-0.39-0.15-0.6c-0.03-0.11-0.06-0.22-0.09-0.33c0.82-0.28,1.95-0.7,2.11-0.79
			c0.92-0.52,1.74-1.21,2.4-2.04c1.36-1.73,1.65-3.57,1.72-5.6c-2.21-0.73-5-1.17-6.91-0.44c-0.6,0.23-1.11,0.59-1.48,1.09
			c-0.12-0.62-0.32-1.22-0.6-1.79c0.54-0.17,1.09-0.34,1.63-0.51c0.35-0.11,0.71-0.22,1.06-0.33c4.8-1.6,8.65-3.15,12.12-4.87
			c1.76-0.87,3.79-1.97,5.5-3.49c1.41-1.25,2.33-2.58,2.73-3.96c0.54-1.83,0.35-3.23-0.56-4.16c-1.69-1.74-5.18-1.05-6.61-0.68
			c-2.07,0.55-3.96,1.42-5.72,2.49c0.25-0.58,0.47-1.17,0.64-1.79c0.54-2.01,0.47-4.9-1.5-6.41c-1.74-1.33-4.07-0.92-5.6,0.07
			c-1.58,1.03-2.61,2.61-3.54,4.15c-2.13,3.54-4,7.29-5.56,11.15c-0.12,0.29-0.29,0.65-0.49,1.06c-0.22,0.47-0.46,0.97-0.67,1.48
			c0.23,0,0.46,0.01,0.69,0.03c0.22,0.02,0.45,0.03,0.67,0.06c0.16-0.36,0.33-0.71,0.47-1.01c0.21-0.43,0.39-0.82,0.52-1.13
			c1.53-3.8,3.37-7.49,5.47-10.97c0.85-1.41,1.79-2.85,3.14-3.73c0.64-0.41,1.49-0.7,2.32-0.7c0.64,0,1.27,0.17,1.8,0.57
			c1.47,1.12,1.48,3.43,1.04,5.06c-0.34,1.28-0.93,2.47-1.63,3.61c-1.92,1.39-3.73,2.94-5.51,4.48l-0.48,0.42
			c-1.61,1.4-3.2,2.75-4.8,4.08c-0.42,0.35-0.83,0.7-1.25,1.04c-0.05,0.04-0.15,0.11-0.27,0.2c-0.47-0.14-0.96-0.22-1.45-0.27
			c-0.22-0.02-0.43-0.03-0.65-0.03c-0.22,0-0.45,0-0.67,0.02c-2.82,0.21-5.52,1.91-6.4,4.66c-0.02-0.09-0.04-0.19-0.07-0.27
			c-0.17-0.37-0.47-0.65-0.78-0.9c-0.13-0.1-0.27-0.16-0.4-0.25c-1.24-0.8-2.76-1.1-4.19-0.63c-0.44,0.15-0.8,0.42-1.11,0.76
			l-1.23-1.82c-0.18-0.26-0.42-0.62-0.82-0.81c-0.77-0.38-1.59,0.07-1.99,0.28l-1.09,0.59c-0.27,0.14-0.37,0.48-0.23,0.74
			c0.14,0.27,0.47,0.37,0.74,0.23l1.1-0.59c0.36-0.19,0.76-0.38,0.99-0.26c0.14,0.07,0.27,0.26,0.39,0.44l1.5,2.21
			c-0.02,0.04-0.03,0.08-0.05,0.12c-1-0.24-2.01-0.45-3.01-0.61c-0.37-0.06-0.77-0.11-1.17,0.02c-0.56,0.17-0.92,0.62-1.19,0.94
			l-0.6,0.73c-0.19,0.23-0.16,0.58,0.08,0.77c0.1,0.08,0.23,0.13,0.35,0.12c0.16,0,0.32-0.07,0.42-0.2l0.6-0.73
			c0.24-0.29,0.44-0.52,0.66-0.59c0.18-0.06,0.42-0.02,0.67,0.02c0.96,0.15,1.93,0.36,2.89,0.59c-0.11,0.75-0.07,1.52-0.01,2.27
			c0.17,2.14,0.53,4.27,1.06,6.35c0.14,0.53,0.39,1.16,0.93,1.24c0.34,0.06,0.67-0.14,0.96-0.33c1.55-1.08,2.72-2.64,3.44-4.38
			c0.08-0.19,0.18-0.38,0.25-0.58c0.19-0.55,0.47-1.45,0.69-2.4c0.2,1.53,0.81,3.02,1.64,4.33c0.52,0.82,1.15,1.58,1.94,2.14
			c-0.63,0.14-1.32,0.3-2.01,0.5c-0.52,0.15-1.04,0.31-1.54,0.49c-0.56,0.21-1.1,0.44-1.57,0.69c-0.22,0.12-0.43,0.27-0.53,0.5
			c-0.13,0.29-0.02,0.63,0.18,0.88c-0.05,0.01-0.09,0-0.15,0.01c-0.2,0.05-0.38,0.16-0.53,0.3c-0.21,0.2-0.37,0.47-0.46,0.75
			c-0.44,1.39-0.34,3.07,0.04,4.6c-0.03,1.41,0.17,2.81,0.6,4.16c0.07,0.23,0.29,0.38,0.52,0.38c0.06,0,0.11-0.01,0.17-0.03
			c0.29-0.09,0.45-0.4,0.35-0.69c-0.32-0.99-0.46-2.02-0.5-3.06c0.43-1.41,0.42-3,1.1-4.32c0.21-0.39,0.2-0.94,0.03-1.38
			c0.16,0.06,0.33,0.11,0.5,0.1c0.28-0.02,0.53-0.18,0.76-0.33c0.9-0.6,1.82-1.18,2.72-1.78c0.43-0.29,0.87-0.57,1.29-0.88
			c0.08-0.06,0.15-0.12,0.22-0.19c0.04-0.01,0.07-0.03,0.11-0.04c0.54,0.21,1.13,0.37,1.74,0.47c-0.04,0.02-0.06,0.03-0.1,0.06
			c-0.5,0.37-0.94,0.85-1.35,1.36c-0.77,0.97-1.37,2.11-1.72,3.22c-0.18,0.56-0.23,1.33,0.29,1.6c0.02,0.01,0.04,0,0.05,0.01
			c-0.32,0.2-0.49,0.61-0.53,1c-0.24,2.02-0.26,3.92,0.53,5.86c0.15,0.37,0.34,0.75,0.66,0.98c0.05,0.04,0.11,0.06,0.16,0.09
			c0.32,0.74,0.73,1.34,1.23,1.8c0.11,0.1,0.24,0.14,0.37,0.14c0.15,0,0.3-0.06,0.41-0.18c0.21-0.22,0.19-0.57-0.03-0.78
			c-0.35-0.32-0.64-0.75-0.89-1.26c0.13-0.24,0.14-0.55,0.13-0.83c-0.03-1.91,0.2-4.81-0.89-6.49c-0.02-0.02-0.04-0.04-0.06-0.07
			c0.01-0.23,0.03-0.44,0.05-0.65c0.13-0.12,0.26-0.26,0.36-0.39c0.87-1.1,1.74-2.2,2.61-3.3c0.11-0.13,0.18-0.27,0.26-0.41
			c0.24-0.42,0.35-0.83,0.35-1.19c0.17-0.2,0.34-0.4,0.51-0.59c0.85-0.13,1.65-0.4,2.28-0.88c0.81-0.62,1.48-1.48,1.99-2.45
			c0.05,0.75,0.2,1.59,0.4,2.43c0.52,2.23,1.39,4.49,1.69,5.3c0.06,0.16,0.12,0.32,0.23,0.45c0.12,0.13,0.28,0.22,0.45,0.27
			c0.12,0.04,0.24,0.03,0.36,0.03c0.07,0.19,0.15,0.37,0.23,0.56c-0.11,0.63-0.03,1.38,0.12,1.75c0.62,1.53,1.3,3.11,2.57,4.15
			c0.32,0.26,0.7,0.49,1.12,0.49c0.02,0,0.03-0.01,0.05-0.01c0.68,0.5,1.48,0.8,2.15,1.03c0.06,0.02,0.12,0.03,0.18,0.03
			c0.23,0,0.44-0.14,0.52-0.37C781.16,1407.5,781.01,1407.19,780.72,1407.08z M755.08,1390.42c-0.46,1-1.08,1.55-1.76,1.55
			c-0.03,0-0.05,0-0.08,0c-0.53-0.03-1.03-0.43-1.27-1.01c-0.21-0.51-0.21-1.07-0.18-1.6c0.06-1.11,0.27-1.95,0.66-2.62
			c0.52-0.93,1.22-1.36,1.91-1.19c0.8,0.2,1.35,1.16,1.36,2.37C755.74,1388.88,755.37,1389.81,755.08,1390.42z M778.72,1371.75
			c0.53-0.42,1.08-0.82,1.63-1.21c2.23-1.58,4.62-2.91,7.32-3.62c2.48-0.65,4.53-0.52,5.36,0.33c0.56,0.58,0.65,1.56,0.25,2.91
			c-0.33,1.14-1.13,2.27-2.35,3.36c-1.6,1.42-3.54,2.47-5.22,3.31c-3.41,1.69-7.21,3.22-11.95,4.81c-0.42,0.14-0.85,0.27-1.27,0.4
			c-0.56,0.18-1.11,0.35-1.67,0.53c-0.12-0.16-0.24-0.32-0.37-0.47c-0.14-0.16-0.28-0.33-0.43-0.48c-0.15-0.15-0.31-0.3-0.48-0.43
			c-0.28-0.23-0.56-0.44-0.87-0.63c-0.07-0.04-0.15-0.07-0.22-0.11c0.46-0.38,0.92-0.76,1.37-1.14c1.48-1.23,2.94-2.48,4.43-3.77
			l0.48-0.42c0.5-0.44,1.01-0.87,1.52-1.31C777.05,1373.09,777.88,1372.41,778.72,1371.75z"/>
		<path class="path2" d="M754.3,1385.81c-0.08-0.02-0.16-0.03-0.23-0.03c-0.49,0-0.98,0.38-1.38,1.09c-0.36,0.64-0.56,1.44-0.62,2.51
			c-0.03,0.49-0.03,1.02,0.16,1.48c0.17,0.4,0.55,0.81,1.04,0.85c0.02,0,0.04,0,0.06,0c0.76,0,1.27-0.87,1.51-1.4
			c0.27-0.59,0.63-1.47,0.62-2.38C755.45,1386.85,754.97,1385.98,754.3,1385.81z M754.27,1387.67c-0.04,0.15-0.12,0.33-0.22,0.49
			c-0.27,0.41-0.71,0.71-1.04,0.15c-0.3-0.5-0.03-1.3,0.49-1.54c0.15-0.07,0.33-0.1,0.48-0.04c0.17,0.07,0.28,0.24,0.32,0.41
			C754.34,1387.31,754.31,1387.5,754.27,1387.67z"/>
	</g>
	<g>
		<path class="path2" d="M393.82,1456.78h0.09c-2.93,5.05-3.08,11.33-0.27,16.53l9.73,18.02c0.96,1.78,2.81,2.89,4.83,2.89H424
			c2.03,0,3.88-1.11,4.84-2.89l9.73-18.02c2.81-5.2,2.66-11.48-0.27-16.53h0.08c1.1,0,2.01-0.6,2.27-1.49
			c0.23-0.78-0.11-1.59-0.86-2.06l-6.85-4.32l0.98-4.11c0.28-1.16,0.01-2.37-0.73-3.31c-0.74-0.94-1.85-1.48-3.05-1.48h-28.08
			c-1.2,0-2.31,0.54-3.05,1.48c-0.74,0.94-1.01,2.14-0.73,3.31l0.98,4.11l-6.85,4.33c-0.75,0.47-1.08,1.28-0.85,2.06
			C391.82,1456.18,392.73,1456.78,393.82,1456.78z M400.77,1450.81l0.25-0.16h30.18l0.25,0.16l4.82,3.04l0.81,0.51h-0.43h-2.51
			c-0.17,0-0.33,0.02-0.5,0.03c-0.86,0.06-1.7,0.26-2.42,0.62l-1.89,0.92c-0.65,0.32-1.57,0.35-2.29,0.09l-2.01-0.73
			c-1.86-0.68-4.06-0.67-5.9,0.04l-1.76,0.67c-0.78,0.3-1.76,0.3-2.54,0l-1.76-0.67c-0.94-0.36-1.97-0.54-3-0.54
			c-1,0-1.99,0.17-2.9,0.5l-2.01,0.73c-0.71,0.27-1.64,0.23-2.29-0.09l-1.9-0.92c-0.73-0.35-1.56-0.55-2.42-0.61
			c-0.17-0.01-0.33-0.03-0.5-0.03l-2.5-0.01l-0.42,0l0.8-0.51L400.77,1450.81z M436.45,1472.16l-9.73,18.02
			c-0.54,1-1.58,1.62-2.72,1.62h-15.79c-1.13,0-2.17-0.62-2.71-1.63l-9.73-18.02c-2.64-4.88-2.22-10.88,1.03-15.38h1.27
			c0.67,0,1.34,0.14,1.87,0.4l1.89,0.92c1.24,0.6,2.84,0.68,4.17,0.19l2.01-0.73c1.3-0.48,2.92-0.47,4.21,0.02l1.76,0.67
			c0.67,0.26,1.4,0.38,2.13,0.38c0.73,0,1.47-0.13,2.13-0.38l1.76-0.67c1.29-0.49,2.91-0.5,4.21-0.02l2,0.73
			c1.33,0.49,2.93,0.42,4.18-0.19l1.89-0.92c0.53-0.26,1.2-0.4,1.87-0.4h1.28C438.67,1461.27,439.09,1467.27,436.45,1472.16z
			M400.92,1442.98c0.28-0.36,0.7-0.56,1.15-0.56h28.08c0.45,0,0.87,0.2,1.15,0.56c0.28,0.35,0.38,0.81,0.28,1.25l-0.95,4h-5
			l-0.14-3.54l-1.82,3.54h-6.66l-0.9-3.54l-0.9,3.54h-7.33l-1.5-3.54v0l-0.27,3.54h-4.53l-0.95-4
			C400.53,1443.79,400.63,1443.33,400.92,1442.98z"/>
	</g>
	<g>
		<path class="path2" d="M1536.79,1588.84v-14.97c0-0.5-0.27-0.97-0.71-1.22l-12.96-7.48c-0.43-0.25-0.97-0.25-1.41,0l-12.96,7.48
			c-0.44,0.25-0.71,0.72-0.71,1.22v14.97c0,0.5,0.27,0.97,0.71,1.22l12.96,7.48c0.22,0.13,0.46,0.19,0.7,0.19
			c0.24,0,0.49-0.06,0.7-0.19l12.96-7.48C1536.52,1589.81,1536.79,1589.34,1536.79,1588.84z M1533.97,1588.02l-11.55,6.67
			l-11.55-6.67v-13.34l11.55-6.67l11.55,6.67V1588.02z"/>
		<path class="path2" d="M1566.45,1572.65l-12.96-7.48c-0.43-0.25-0.97-0.25-1.41,0l-12.96,7.48c-0.44,0.25-0.71,0.72-0.71,1.22v14.97
			c0,0.5,0.27,0.97,0.71,1.22l12.96,7.48c0.22,0.13,0.46,0.19,0.7,0.19c0.24,0,0.49-0.06,0.7-0.19l12.96-7.48
			c0.44-0.25,0.71-0.72,0.71-1.22v-14.97C1567.15,1573.37,1566.88,1572.9,1566.45,1572.65z M1564.34,1588.02l-11.55,6.67l-11.55-6.67
			v-13.34l11.55-6.67l11.55,6.67V1588.02z"/>
		<g>
			<path class="path2" d="M1551.28,1598.95l-12.96-7.48c-0.43-0.25-0.97-0.25-1.41,0l-12.96,7.48c-0.44,0.25-0.71,0.72-0.71,1.22v14.97
				c0,0.5,0.27,0.97,0.71,1.22l12.96,7.48c0.22,0.12,0.46,0.19,0.7,0.19c0.24,0,0.49-0.06,0.7-0.19l12.96-7.48
				c0.44-0.25,0.71-0.72,0.71-1.22v-14.97C1551.99,1599.66,1551.72,1599.2,1551.28,1598.95z M1549.17,1614.32l-11.55,6.67
				l-11.55-6.67v-13.34l11.55-6.67l11.55,6.67V1614.32z"/>
			<path class="path2" d="M1537.08,1597.13c-2.85,1.47-5.62,3.07-8.31,4.8l-0.09,0.06c-0.28,0.18-0.46,0.5-0.44,0.86
				c0.16,3.2,0.42,6.4,1.06,9.6c0.6-2.98,0.85-5.97,1.01-8.95c2.52-1.31,4.97-2.73,7.37-4.25c2.66,1.35,5.37,2.62,8.26,3.6
				c-2.45-2.16-5.09-3.98-7.79-5.72c-0.28-0.18-0.65-0.21-0.97-0.05L1537.08,1597.13z"/>
		</g>
		<path class="path2" d="M1521.88,1570.83c-2.85,1.47-5.62,3.07-8.31,4.8l-0.09,0.06c-0.28,0.18-0.46,0.5-0.44,0.86
			c0.16,3.2,0.42,6.4,1.06,9.6c0.6-2.98,0.85-5.96,1.01-8.95c2.52-1.31,4.97-2.73,7.37-4.25c2.66,1.35,5.37,2.62,8.26,3.6
			c-2.45-2.16-5.09-3.98-7.79-5.72c-0.28-0.18-0.65-0.21-0.97-0.05L1521.88,1570.83z"/>
		<path class="path2" d="M1552.25,1570.83c-2.85,1.47-5.62,3.07-8.31,4.8l-0.09,0.06c-0.28,0.18-0.46,0.5-0.44,0.86
			c0.16,3.2,0.42,6.4,1.06,9.6c0.6-2.98,0.85-5.96,1.01-8.95c2.52-1.31,4.97-2.73,7.37-4.25c2.66,1.35,5.37,2.62,8.26,3.6
			c-2.45-2.16-5.09-3.98-7.79-5.72c-0.28-0.18-0.65-0.21-0.97-0.05L1552.25,1570.83z"/>
	</g>
	<g>
		<path class="path2" d="M1610.89,266.63c0.81-0.85,1.73-2,1.75-3.32c-0.28-0.4-0.58-0.8-0.9-1.16c-0.2,0.92-0.75,1.74-1.33,2.5
			c-0.52,0.67-0.99,1.22-1.47,1.69c-0.37,0.37-0.73,0.68-1.1,0.97c-0.95,0.72-1.97,1.2-2.99,1.4c0.36,0.32,0.73,0.62,1.13,0.9
			C1607.58,269.39,1609.19,268.42,1610.89,266.63z"/>
		<path class="path2" d="M1611.62,269.57c0.8-0.69,1.35-1.31,1.75-1.95c0.28-0.46,0.58-1.13,0.65-1.89c-0.23-0.53-0.5-1.04-0.81-1.54
			c-0.29,1.16-1.1,2.14-1.82,2.91c-0.13,0.13-0.24,0.25-0.36,0.37c-1.44,1.44-2.84,2.32-4.25,2.68c0.56,0.35,1.13,0.67,1.71,0.93
			C1609.43,271.07,1610.46,270.57,1611.62,269.57z"/>
		<path class="path2" d="M1609.86,264.23c0.65-0.85,1.26-1.76,1.26-2.77c-0.02-0.03-0.06-0.07-0.09-0.1c-0.41-0.42-0.84-0.84-1.3-1.19
			c-0.07,0.74-0.38,1.37-0.66,1.79c-0.6,0.93-1.24,1.73-1.91,2.4c-1.23,1.23-2.6,2.06-4.12,2.49c0.36,0.47,0.77,0.9,1.2,1.3
			c0.02,0.02,0.04,0.04,0.06,0.05l-0.01-0.11c1.05-0.12,2.12-0.58,3.12-1.34C1608.22,266.15,1608.97,265.37,1609.86,264.23z"/>
		<path class="path2" d="M1614.71,271.83c0.42-1.64,0.28-3.33-0.25-4.94c-0.14,0.43-0.34,0.79-0.52,1.09
			c-0.29,0.49-0.68,0.96-1.17,1.45c-0.22,0.22-0.45,0.43-0.71,0.66c-0.84,0.72-1.62,1.21-2.38,1.46
			C1611.32,272.1,1613.03,272.26,1614.71,271.83z"/>
		<path class="path2" d="M1595.91,258c0.06-0.04,0.12-0.08,0.16-0.13c0.05-0.08,0.1-0.17,0.14-0.29c0.12-0.37,0.13-0.73,0.02-1.09
			c-0.12-0.37-0.44-0.8-0.83-0.93c-0.22-0.07-0.43-0.03-0.63,0.13c-0.05,0.04-0.09,0.1-0.13,0.15
			C1594.43,257.01,1594.58,258.19,1595.91,258z M1595.24,256.79c-0.03-0.11,0-0.22,0.03-0.32l0,0.15c-0.05-0.18,0.06-0.39,0.24-0.46
			c0.21,0.17,0.25,0.51,0.08,0.72c-0.03,0.04-0.06,0.07-0.11,0.08C1595.37,256.98,1595.26,256.89,1595.24,256.79z"/>
		<path class="path2" d="M1599.37,253.35c0.35,0.11,0.72,0.11,1.09-0.02c0.12-0.04,0.21-0.08,0.29-0.14c0.06-0.04,0.09-0.1,0.13-0.16
			c0.2-1.33-0.98-1.48-2.15-1.28c-0.05,0.04-0.11,0.08-0.15,0.13c-0.15,0.2-0.2,0.41-0.13,0.63
			C1598.56,252.91,1599,253.23,1599.37,253.35z M1599.49,252.39l-0.15,0c0.1-0.03,0.21-0.06,0.32-0.03c0.11,0.03,0.2,0.14,0.17,0.24
			c-0.01,0.04-0.05,0.08-0.08,0.11c-0.21,0.17-0.56,0.14-0.72-0.08C1599.1,252.45,1599.31,252.34,1599.49,252.39z"/>
		<path class="path2" d="M1588.15,271.39c0.21,0.02,0.41,0.03,0.61,0.03c1.73,0,3.35-0.78,4.61-1.48c1.13-0.63,2.19-1.31,3.21-2
			c-0.26,0.57-0.51,1.14-0.71,1.72c-0.2,0.55-0.36,1.11-0.51,1.68c-0.22,0.88-0.49,2.19-0.29,3.5c0.19,1.27,0.98,2.75,2.13,3.11
			c0.16,0.05,0.34,0.09,0.54,0.09c0.45,0,1.01-0.18,1.59-0.78c0.74-0.76,1.05-1.8,1.28-2.72c0.46-1.84,0.75-3.7,1.03-5.71
			c0.35,0.72,0.93,1.34,1.82,1.91c0.02,0.01,0.04,0.02,0.06,0.04c0.61,0.39,1.29,0.86,1.34,1.57c0.02,0.26-0.05,0.52-0.03,0.77
			c0.01,0.26,0.15,0.54,0.4,0.6c0.49,0.11,0.63-1.46,0.61-1.7c-0.09-0.84-0.34-1.08-1.1-1.5c-0.63-0.34-1.2-0.78-1.69-1.3
			c-0.23-0.24-0.45-0.52-0.51-0.84c-0.05-0.26,0-0.52,0.05-0.78c0.08-0.4,0.12-0.8,0.15-1.21c-0.03-0.05-0.07-0.1-0.1-0.15
			c0.04-0.01,0.08-0.03,0.13-0.04c2.25-0.6,4.14-2.12,5.76-4.63c0.26-0.4,0.55-1.02,0.55-1.72c0-0.06,0.01-0.11,0.01-0.18
			c0.07,0.04,0.14,0.1,0.21,0.15c0.41-0.03,0.82-0.07,1.22-0.15c0.26-0.05,0.52-0.1,0.78-0.05c0.33,0.06,0.6,0.28,0.84,0.51
			c0.52,0.49,0.96,1.06,1.3,1.69c0.41,0.76,0.66,1.01,1.5,1.1c0.24,0.02,1.81-0.12,1.7-0.61c-0.06-0.25-0.34-0.39-0.6-0.4
			c-0.26-0.01-0.52,0.05-0.77,0.03c-0.71-0.06-1.18-0.73-1.57-1.34c-0.01-0.02-0.02-0.04-0.04-0.06c-0.56-0.9-1.19-1.47-1.91-1.82
			c2.01-0.28,3.87-0.57,5.71-1.03c0.92-0.23,1.96-0.54,2.72-1.28c0.87-0.84,0.85-1.63,0.69-2.13c-0.37-1.14-1.84-1.93-3.11-2.13
			c-1.32-0.2-2.63,0.07-3.5,0.29c-0.57,0.14-1.13,0.31-1.68,0.51h0c-0.58,0.21-1.16,0.45-1.72,0.71c0.69-1.02,1.36-2.08,2-3.21
			c0.79-1.4,1.66-3.26,1.45-5.22c-0.22-2.02-1.64-3.93-3.71-4.98c-0.48-0.24-1.2-0.55-1.96-0.4c-1.69,0.33-2.13,2.45-2.27,3.14
			c-0.49,2.34-0.97,5-1.27,7.79c-0.01-0.06-0.01-0.11-0.02-0.13c-0.82-0.5-1.63-1-2.45-1.51c-0.47-0.29-0.99-0.66-1.06-1.21
			c-0.04-0.36,0.13-0.71,0.19-1.08s-0.08-0.82-0.44-0.88c-0.31,0.77-0.5,1.58-0.56,2.4c-0.03,0.35-0.03,0.7,0.11,1.02
			c0.49,1.19,2.36,1.12,3.06,2.19c0.41,0.63,0.29,1.44,0.31,2.19c0,0.13,0.03,0.27,0.05,0.4c-1.62-0.92-3.43-0.47-4.93,0.66
			c0.1-0.09,0.18-0.2,0.28-0.28c0.41-0.33,0.87-0.67,1.11-1.12c-0.06,0.03-0.11,0.07-0.19,0.09c-0.22,0.07-0.44,0.11-0.66,0.11
			c-0.2,0-0.39-0.03-0.59-0.09c-0.42-0.13-0.94-0.5-1.09-1c-0.08-0.26-0.03-0.52,0.12-0.76c-0.48,0.11-0.92,0.27-1.23,0.41
			c-0.39-0.61-0.66-1.3-0.77-2.01c-0.07-0.43,0.01-0.79,0.17-0.87c0.27-0.12,0.39-0.43,0.27-0.7c-0.12-0.27-0.44-0.39-0.7-0.27
			c-0.64,0.29-0.93,1.03-0.78,1.99c0.13,0.86,0.45,1.68,0.92,2.41c-0.03,0.03-0.08,0.04-0.11,0.07c-0.06,0.05-0.11,0.11-0.16,0.16
			c-0.06,0.05-0.11,0.1-0.16,0.16c-0.13,0.14-0.22,0.32-0.32,0.48c-0.75-0.49-1.6-0.83-2.49-0.97c-0.96-0.14-1.71,0.15-1.99,0.79
			c-0.12,0.27,0,0.58,0.27,0.7c0.27,0.12,0.58,0,0.7-0.27c0.07-0.16,0.44-0.24,0.86-0.17c0.78,0.12,1.52,0.43,2.17,0.87
			c-0.09,0.24-0.17,0.52-0.24,0.81c0.24-0.15,0.49-0.2,0.76-0.12c0.5,0.16,0.87,0.68,1,1.09c0.13,0.41,0.12,0.83-0.02,1.25
			c-0.03,0.08-0.06,0.13-0.09,0.19c0.45-0.24,0.79-0.7,1.12-1.11c0.08-0.1,0.19-0.18,0.28-0.28c-1.13,1.5-1.58,3.31-0.67,4.92
			c-0.13-0.02-0.27-0.05-0.4-0.05c-0.75-0.02-1.56,0.1-2.19-0.31c-1.07-0.7-1-2.57-2.19-3.06c-0.32-0.13-0.68-0.13-1.02-0.11
			c-0.82,0.06-1.64,0.25-2.4,0.56c0.06,0.36,0.52,0.5,0.88,0.44c0.36-0.06,0.71-0.23,1.08-0.19c0.55,0.06,0.92,0.59,1.21,1.06
			c0.5,0.82,1,1.63,1.51,2.45c0.02,0,0.07,0.01,0.13,0.02c-2.79,0.3-5.45,0.78-7.79,1.27c-0.7,0.14-2.81,0.58-3.14,2.27
			c-0.15,0.76,0.15,1.48,0.4,1.96C1584.22,269.75,1586.13,271.17,1588.15,271.39z M1586.13,264.49c3.35-0.7,7.32-1.42,11.42-1.52
			c0.38-0.01,0.76,0,1.15,0.01c0.34,0,0.68,0,1.03,0.01c0.06,0,0.12,0,0.18,0c0.2,0.01,0.38,0.03,0.55,0.09
			c0.07,0.02,0.14,0.03,0.2,0.07c0.01,0.04-0.01,0.12-0.07,0.23c-0.15,0.27-0.6,0.77-1.82,1.68c-0.16,0.12-0.33,0.24-0.52,0.38
			c-0.15,0.11-0.27,0.19-0.34,0.25c-0.07,0.06-0.16,0.11-0.23,0.16c-1.46,1.11-3.08,2.17-4.84,3.16c-1.26,0.71-2.93,1.5-4.58,1.32
			c-1.67-0.18-3.26-1.38-4.15-3.13c-0.27-0.54-0.37-0.94-0.3-1.27C1583.95,265.26,1584.71,264.79,1586.13,264.49z M1609.03,240.92
			c0.29,0,0.64,0.1,1.06,0.32c1.75,0.89,2.95,2.48,3.13,4.15c0.18,1.66-0.61,3.32-1.32,4.58c-0.99,1.76-2.05,3.37-3.16,4.84
			c-0.06,0.07-0.11,0.16-0.16,0.23c-0.06,0.08-0.14,0.2-0.25,0.34c-0.14,0.2-0.26,0.36-0.38,0.52c-0.9,1.2-1.4,1.65-1.69,1.78
			c-0.12,0.06-0.21,0.06-0.27,0.03c-0.02-0.03-0.02-0.08-0.04-0.12c-0.05-0.15-0.07-0.34-0.08-0.56c0-0.06,0-0.12,0-0.18
			c-0.01-0.34,0-0.68-0.01-1.02c0-0.39-0.02-0.78-0.01-1.16c0.1-4.09,0.79-7.91,1.52-11.42c0.3-1.43,0.77-2.18,1.44-2.32
			C1608.88,240.92,1608.95,240.92,1609.03,240.92z M1609.9,255.36l0.13-0.07c0.92-0.52,1.89-0.96,2.88-1.31
			c0.52-0.18,1.05-0.34,1.59-0.48c1.26-0.32,2.21-0.4,3.08-0.27c0.92,0.14,2.05,0.74,2.26,1.4c0.04,0.12,0.16,0.49-0.42,1.05
			c-0.57,0.56-1.42,0.8-2.24,1.01c-1.99,0.5-4,0.79-6.26,1.1c-1.7,0.23-2.75,0.28-3.42,0.27c0.58-0.55,1.16-1.32,1.69-2.06
			c0.1-0.13,0.17-0.24,0.23-0.31c0.02-0.03,0.04-0.06,0.06-0.08C1609.62,255.52,1609.75,255.44,1609.9,255.36z M1597.51,276.96
			c-0.67-0.21-1.26-1.34-1.4-2.26c-0.13-0.87-0.05-1.82,0.27-3.08c0.14-0.54,0.3-1.07,0.48-1.59c0.35-0.99,0.79-1.96,1.31-2.88
			l0.07-0.12c0.08-0.15,0.16-0.28,0.24-0.42c0.03-0.02,0.06-0.04,0.08-0.06c0.07-0.05,0.18-0.13,0.31-0.23
			c0.74-0.53,1.51-1.1,2.06-1.68c0.02,0.68-0.04,1.75-0.27,3.43c-0.3,2.24-0.6,4.25-1.1,6.24c-0.21,0.82-0.45,1.67-1.01,2.24
			C1598,277.12,1597.63,277,1597.51,276.96z M1605.93,262.58c-0.08,0.09-0.17,0.18-0.25,0.26c-0.82,0.82-1.8,1.44-2.86,1.83
			c-0.27,0.1-0.55,0.19-0.83,0.26c0-0.26-0.01-0.5-0.03-0.71c0.27-0.07,0.54-0.15,0.81-0.26c0.99-0.4,1.91-1.03,2.65-1.85
			c0.57-0.63,1.15-1.45,1.45-2.21c0.11-0.28,0.17-0.55,0.19-0.81c0.21,0.02,0.44,0.03,0.69,0.03c-0.01,0.27-0.08,0.55-0.17,0.82
			C1607.2,261.09,1606.3,262.17,1605.93,262.58z"/>
	</g>
	<g>
		<path class="path2" d="M1554.05,646.25h-0.24v11.96h0.24h12.29c0.24-1.11,1.22-1.94,2.4-1.94h16.6c1.18,0,2.16,0.83,2.4,1.94h12.29
			h0.24v-11.96h-0.24H1554.05z"/>
		<path class="path2" d="M1554.82,620.54h44.45l-22.23-19.24L1554.82,620.54z M1578.01,612.49l-0.97,0.56l-0.97-0.56v-1.12l0.97-0.56
			l0.97,0.56V612.49z"/>
		<path class="path2" d="M1600.28,634.53v-0.84h-0.24h-45.98h-0.24v0.84v10.52h0.24h45.98h0.24V634.53z M1583.85,639.94h-13.6v-1.2
			h13.6V639.94z"/>
		<path class="path2" d="M1600.28,631.66v-9.93h-0.24h-45.98h-0.24v9.93v0.84h0.24h45.98h0.24V631.66z M1570.24,626.3h13.6v1.2h-13.6
			V626.3z"/>
		<path class="path2" d="M1545.95,626.64l8.1-7.01l22.6-19.57c0.22-0.19,0.56-0.19,0.78,0l22.6,19.57l8.1,7.01l2.57-2.52l-33.66-29.15
			l-33.67,29.15L1545.95,626.64z"/>
		<polygon class="path2" points="1600.04,659.41 1554.05,659.41 1553.21,659.41 1551.18,659.41 1551.18,660.7 1551.18,663.58 
			1551.18,664.49 1602.91,664.49 1602.91,663.58 1602.91,660.7 1602.91,659.41 1600.87,659.41 	"/>
	</g>
	<path class="path2" d="M429.02,1243.2c-1.43-8.17-21.35-33.63-14.31-9.73c-0.46,0.26-0.67,0.38-2.16,1.23
		c-6.93-17.46-18.55-12.57-6.9,3.93c-0.41,0.24-0.73,0.41-2.16,1.23c-9.13-21.78-19.86-14.01-6.9,3.93l-2.16,1.23
		c-7.37-19.07-18.74-12.48-6.9,3.93c-0.09,0.05-1.26,0.72-2.16,1.23c-4.77-14.16-17.22-10.91-6.9,3.93l-2.16,1.23
		c-2.1-9.03-14.11-6.75-6.9,3.93c-28.32,16.12-57.26,32.6-85.93,48.92l0,0c-7.21,5.54-67.55,32.34-38.11,32.79
		c46.67-26.57,85.33-48.58,128.81-73.33c2.34,9.17,14.09,6.79,6.9-3.93c0.53-0.3,0.57-0.32,2.16-1.23
		c5.34,14.91,16.93,10.23,6.9-3.93c0.68-0.39,0.33-0.19,2.15-1.23c7.59,19.11,18.82,12.49,6.9-3.93l2.16-1.23
		c8.77,21.58,19.86,14.08,6.9-3.93c0.11-0.06,1.16-0.66,2.16-1.23c6.58,17.3,18.66,12.92,6.9-3.93l2.15-1.23
		C420.66,1245.67,426.98,1252.27,429.02,1243.2z"/>
	<g>
		<path class="path2" d="M1259.48,147.95c20.08,3.49,40.08,7.53,59.9,12.38c19.81,4.88,39.47,10.39,58.86,16.78
			c19.38,6.41,38.53,13.58,57.28,21.73c18.73,8.19,37.06,17.34,54.77,27.6c17.66,10.34,34.78,21.71,50.87,34.44
			c3.98,3.24,8.02,6.4,11.86,9.81c1.93,1.69,3.9,3.34,5.81,5.06l5.65,5.23c0.94,0.88,1.89,1.73,2.82,2.62l2.74,2.71l5.47,5.42
			l5.28,5.62l2.64,2.81c0.87,0.95,1.7,1.93,2.55,2.9l5.07,5.81c1.66,1.96,3.25,3.99,4.87,5.98c1.61,2,3.26,3.98,4.78,6.08l2.33,3.11
			c0.77,1.04,1.49,2.12,2.23,3.18c5.91,8.49,11.18,17.46,15.67,26.81c4.48,9.36,8.12,19.13,10.85,29.17
			c2.73,10.04,4.57,20.34,5.24,30.76c0.7,10.41,0.37,20.9-1.09,31.25c-1.51,10.34-4.13,20.53-7.79,30.33
			c-7.23,19.66-19.04,37.46-33.15,52.68c-7.17,7.51-14.61,14.79-22.74,21.23c-3.94,3.38-8.19,6.34-12.31,9.47
			c-2.09,1.53-4.26,2.93-6.39,4.4c-2.14,1.45-4.26,2.94-6.47,4.27c-17.46,11.06-35.92,20.4-54.85,28.39
			c-18.92,8.05-38.23,15.02-57.73,21.18c-19.47,6.28-39.09,12.07-58.83,17.37c-39.49,10.63-79.42,19.44-119.54,27.07
			c-40.13,7.61-80.46,13.94-120.83,19.79c-40.37,5.84-80.79,11.14-121.18,16.45c-80.76,10.68-161.46,21.7-241.09,38.19
			c-39.8,8.24-79.3,17.9-118.22,29.5c-38.92,11.59-77.22,25.24-114.52,41.25l-3.51,1.46l-3.47,1.57l-6.93,3.15l-13.85,6.3l-3.46,1.58
			l-3.42,1.67l-6.83,3.33c-4.55,2.24-9.03,4.61-13.54,6.9c-17.94,9.42-35.44,19.7-52.32,30.9c-16.88,11.2-33.13,23.34-48.5,36.52
			c-15.33,13.21-29.72,27.53-42.82,42.94c-3.35,3.79-6.41,7.82-9.55,11.78c-1.6,1.96-3.07,4.02-4.55,6.06l-4.46,6.13
			c-1.44,2.08-2.81,4.2-4.22,6.3l-2.1,3.16l-1.05,1.58l-0.98,1.62l-3.93,6.48c-0.65,1.09-1.33,2.15-1.94,3.25l-1.82,3.33l-3.63,6.65
			c-1.17,2.24-2.23,4.53-3.36,6.8l-1.66,3.41c-0.56,1.13-1.11,2.27-1.59,3.44l-3,6.96c-0.49,1.16-1.01,2.31-1.48,3.49l-1.33,3.55
			l-2.65,7.1c-0.86,2.37-1.56,4.81-2.34,7.21l-1.15,3.61c-0.38,1.21-0.79,2.4-1.08,3.63c-5.47,19.46-8.61,39.58-9.35,59.8l-0.17,3.79
			l0.02,3.8l0.05,7.59c-0.04,2.53,0.18,5.06,0.31,7.59l0.44,7.58c0.05,1.27,0.2,2.52,0.33,3.78l0.4,3.78
			c0.27,2.52,0.51,5.04,0.82,7.56l1.11,7.52c0.37,2.51,0.71,5.02,1.23,7.5c0.97,4.97,1.83,9.97,3.1,14.87
			c0.6,2.46,1.15,4.94,1.79,7.38l2.09,7.3l1.05,3.65l1.22,3.6l2.44,7.2c0.88,2.37,1.84,4.72,2.75,7.08l1.38,3.54
			c0.45,1.18,1.01,2.32,1.52,3.48l3.09,6.94c1.07,2.29,2.26,4.53,3.38,6.8l1.71,3.39c0.56,1.14,1.23,2.21,1.83,3.33l3.73,6.62
			c1.3,2.17,2.67,4.3,4.01,6.45l2.01,3.22c0.7,1.06,1.43,2.09,2.15,3.13l4.32,6.25l4.6,6.05c0.77,1,1.52,2.03,2.31,3.01l2.43,2.92
			c1.63,1.94,3.21,3.92,4.89,5.82c3.42,3.74,6.74,7.57,10.38,11.1l2.67,2.7c0.88,0.91,1.78,1.8,2.72,2.65l5.56,5.18
			c0.91,0.88,1.87,1.71,2.84,2.53l2.88,2.48c1.93,1.64,3.81,3.34,5.82,4.89l5.95,4.74c1.99,1.57,4.06,3.03,6.09,4.55
			c4.03,3.08,8.29,5.84,12.45,8.74c2.12,1.4,4.27,2.74,6.4,4.11l3.21,2.05c1.07,0.67,2.18,1.3,3.26,1.96l6.54,3.89l6.65,3.7
			c35.62,19.55,74.1,33.47,113.26,44.2c39.25,10.6,79.31,18.02,119.6,23.48c40.3,5.49,80.85,9.08,121.46,11.83
			c40.6,2.78,81.31,4.67,122,7.11c81.24,4.68,162.87,6.36,244.17,14.87c10.15,1.15,20.31,2.19,30.44,3.57
			c5.07,0.68,10.14,1.25,15.2,2.02l15.17,2.27c5.06,0.7,10.09,1.67,15.13,2.51l7.56,1.3l3.78,0.65l3.76,0.74
			c10.03,1.98,20.05,3.94,30.07,6.07c40.05,8.66,79.37,21.46,116.32,39.4l6.92,3.37l6.83,3.57c4.58,2.32,9.02,4.89,13.51,7.39
			c2.26,1.23,4.44,2.58,6.64,3.89l6.6,3.97l6.49,4.15l3.24,2.08l3.19,2.16l6.36,4.34c2.11,1.47,4.16,3,6.25,4.5
			c4.19,2.96,8.21,6.16,12.29,9.28c8.02,6.41,15.92,12.98,23.43,19.98c3.83,3.42,7.45,7.06,11.15,10.62c1.82,1.81,3.59,3.67,5.39,5.5
			l2.69,2.75l2.61,2.82c7.04,7.46,13.67,15.31,20.09,23.31c6.41,8.01,12.41,16.34,18.19,24.8c5.77,8.48,11.12,17.23,16.24,26.11
			c20.32,35.6,35.27,74.19,44.4,114.06c4.54,19.94,7.62,40.22,8.95,60.61c0.66,10.2,0.8,20.43,0.39,30.64
			c-0.45,10.2-1.48,20.41-3.64,30.41l-0.89-0.19c1.94-9.97,2.75-20.13,2.98-30.27c0.2-10.15-0.17-20.32-0.98-30.44
			c-1.67-20.24-5.1-40.32-9.91-60.03c-9.63-39.43-25.04-77.41-45.49-112.36c-20.48-34.95-46.28-66.72-76.28-93.82
			c-7.45-6.83-15.29-13.23-23.24-19.46c-4.04-3.03-8.02-6.15-12.18-9.03c-2.06-1.46-4.1-2.95-6.19-4.38l-6.3-4.22
			c-16.83-11.2-34.54-21.03-52.78-29.75c-36.49-17.47-75.3-29.82-114.9-38.2c-9.92-2.08-19.9-4-29.86-5.94l-3.74-0.73l-3.75-0.64
			l-7.5-1.27c-5.01-0.82-9.99-1.77-15.02-2.45l-15.06-2.21c-5.02-0.75-10.07-1.31-15.1-1.97c-10.06-1.35-20.17-2.36-30.27-3.47
			c-20.22-2.01-40.47-3.74-60.77-5.12c-20.29-1.46-40.6-2.6-60.94-3.68c-40.67-2.08-81.38-3.94-122.1-6.53
			c-40.64-2.72-81.33-5.02-122.01-8.24c-40.66-3.23-81.3-7.3-121.69-13.29c-40.37-5.99-80.55-13.8-119.89-24.85
			c-19.65-5.59-39.12-11.85-58.15-19.31c-19.01-7.49-37.67-15.94-55.54-25.9l-6.69-3.75l-6.58-3.94c-1.09-0.66-2.2-1.3-3.28-1.98
			l-3.23-2.07c-2.15-1.39-4.31-2.75-6.44-4.16c-4.19-2.93-8.48-5.73-12.54-8.85c-2.04-1.54-4.13-3.02-6.14-4.61l-5.99-4.8
			c-2.02-1.57-3.92-3.29-5.87-4.95l-2.9-2.51c-0.97-0.83-1.94-1.67-2.86-2.56l-5.61-5.25c-0.95-0.86-1.85-1.77-2.74-2.68l-2.7-2.73
			c-3.66-3.58-7.02-7.45-10.49-11.22c-1.69-1.92-3.3-3.92-4.95-5.87l-2.46-2.95c-0.81-0.99-1.56-2.03-2.34-3.04l-4.66-6.11
			l-4.38-6.31c-0.72-1.06-1.47-2.1-2.18-3.16l-2.04-3.25c-1.35-2.18-2.75-4.32-4.06-6.52l-3.78-6.69c-0.62-1.12-1.29-2.21-1.86-3.36
			l-1.73-3.43c-1.14-2.29-2.34-4.56-3.43-6.87l-3.14-7.01c-0.51-1.17-1.08-2.32-1.54-3.52l-1.41-3.58c-0.93-2.39-1.89-4.76-2.79-7.16
			l-2.48-7.27l-1.24-3.64l-1.08-3.69l-2.15-7.37c-0.67-2.47-1.23-4.97-1.85-7.46c-1.31-4.96-2.21-10-3.21-15.02
			c-0.54-2.5-0.89-5.04-1.28-7.57l-1.16-7.59c-0.32-2.54-0.57-5.09-0.86-7.63l-0.42-3.82c-0.14-1.27-0.3-2.54-0.35-3.82l-0.49-7.67
			c-0.15-2.56-0.38-5.11-0.36-7.68l-0.09-7.69l-0.04-3.84l0.16-3.84c0.59-20.49,3.58-40.94,8.97-60.75c0.29-1.25,0.69-2.47,1.07-3.7
			l1.13-3.68c0.78-2.45,1.46-4.92,2.32-7.34l2.63-7.24l1.32-3.62c0.47-1.2,0.98-2.37,1.47-3.56l2.98-7.1
			c0.48-1.19,1.02-2.35,1.58-3.51l1.66-3.47c1.12-2.31,2.18-4.65,3.35-6.93l3.63-6.79l1.82-3.4c0.61-1.13,1.3-2.21,1.94-3.32
			l3.93-6.62l0.98-1.65l1.05-1.61l2.11-3.22c1.41-2.14,2.79-4.31,4.23-6.43l4.47-6.26c1.49-2.09,2.96-4.19,4.57-6.2
			c3.16-4.04,6.23-8.16,9.59-12.04c13.13-15.77,27.57-30.42,42.96-43.96c15.43-13.51,31.76-25.95,48.71-37.46
			c16.96-11.5,34.54-22.07,52.58-31.76c4.54-2.36,9.05-4.79,13.63-7.08l6.88-3.42l3.44-1.71l3.48-1.62l13.91-6.46l6.96-3.23
			l3.48-1.61l3.53-1.5c37.45-16.48,76-30.36,115.11-42.27c39.12-11.9,78.82-21.74,118.78-30.21c79.95-16.93,160.84-28.27,241.6-39.2
			c40.38-5.49,80.77-10.79,121.05-16.63c40.28-5.83,80.46-12.23,120.42-19.72c39.96-7.47,79.69-16.11,118.93-26.54
			c19.62-5.2,39.11-10.89,58.44-17.06l7.26-2.28l7.21-2.4c4.82-1.57,9.57-3.31,14.36-4.96c9.5-3.48,18.98-7,28.27-10.96
			c18.65-7.75,36.72-16.78,53.75-27.42c2.17-1.28,4.22-2.71,6.31-4.1c2.07-1.41,4.19-2.76,6.22-4.23c4.01-3,8.14-5.85,11.96-9.09
			c7.89-6.17,15.08-13.14,22.02-20.31l4.97-5.59c0.81-0.94,1.69-1.84,2.46-2.82l2.33-2.91c1.59-1.91,3.02-3.94,4.49-5.94
			c1.51-1.97,2.8-4.1,4.2-6.15c0.71-1.02,1.34-2.09,1.97-3.15l1.92-3.19c1.24-2.15,2.38-4.35,3.57-6.53
			c1.06-2.24,2.19-4.45,3.19-6.72l1.46-3.42l0.73-1.71l0.65-1.74c3.54-9.26,6.1-18.89,7.61-28.69c1.46-9.81,1.86-19.78,1.27-29.71
			c-0.56-9.93-2.24-19.79-4.78-29.43c-2.55-9.64-5.95-19.06-10.17-28.13c-4.24-9.06-9.23-17.77-14.88-26.05
			c-0.71-1.03-1.4-2.08-2.13-3.1l-2.22-3.03c-1.45-2.04-3.05-4-4.61-5.98c-1.57-1.97-3.11-3.97-4.72-5.91l-4.92-5.75
			c-0.82-0.95-1.63-1.93-2.47-2.87l-2.56-2.78l-5.13-5.57l-5.33-5.38l-2.66-2.69c-0.9-0.89-1.83-1.74-2.75-2.61l-5.51-5.2
			c-1.86-1.71-3.78-3.35-5.67-5.04c-3.74-3.4-7.7-6.55-11.58-9.8c-15.71-12.75-32.49-24.19-49.85-34.65
			c-17.41-10.39-35.51-19.64-53.98-28.09c-18.5-8.38-37.44-15.8-56.65-22.47c-38.45-13.26-77.99-23.34-117.98-31.04L1259.48,147.95z"
			/>
	</g>
</svg>
